<svg width="36" height="36" viewBox="0 0 36 36" fill="none" xmlns="http://www.w3.org/2000/svg">
<g clip-path="url(#clip0_174_6564)">
<path d="M18 36C27.9411 36 36 27.9411 36 18C36 8.05887 27.9411 0 18 0C8.05887 0 0 8.05887 0 18C0 27.9411 8.05887 36 18 36Z" fill="#F0F0F0"/>
<path d="M18.0002 -0.00146484C14.3878 -0.00146484 11.0247 1.06342 8.20569 2.89527L12.835 5.99809L7.0437 8.99804L12.835 11.998L7.0437 14.9979L12.835 17.9976L7.0437 20.9974L12.835 23.9973L7.0437 26.9976L12.835 29.9975L8.20512 33.1013C11.0242 34.9335 14.3876 35.9985 18.0002 35.9985C27.9413 35.9985 36.0002 27.9396 36.0002 17.9985C36.0002 8.05747 27.9413 -0.00146484 18.0002 -0.00146484Z" fill="#D80027"/>
</g>
<defs>
<clipPath id="clip0_174_6564">
<rect width="36" height="36" fill="white"/>
</clipPath>
</defs>
</svg>
