<svg width="55" height="55" viewBox="0 0 55 55" fill="none" xmlns="http://www.w3.org/2000/svg">
<rect width="55" height="55" fill="#17323B"/>
<path d="M28.9297 21.7693C30.438 21.7693 31.8846 22.3685 32.9512 23.4351C34.0178 24.5016 34.617 25.9483 34.617 27.4566C34.617 28.9651 34.0178 30.4116 32.9512 31.4783C31.8846 32.5448 30.438 33.1441 28.9297 33.1441C27.4213 33.1441 25.9747 32.5448 24.9081 31.4783C23.8415 30.4116 23.2423 28.9651 23.2423 27.4566C23.2423 25.9483 23.8415 24.5016 24.9081 23.4351C25.9747 22.3685 27.4213 21.7693 28.9297 21.7693Z" fill="#FF5C00"/>
<path d="M29.1875 36.9174C31.6693 36.9174 33.9309 36.0639 35.6438 34.5241L36.8395 33.4582L42.226 38.7562L40.9438 39.9538C37.8621 42.8172 33.6752 44.3983 29.1855 44.3983C19.5237 44.3983 12.2119 37.0492 12.2119 27.3421C12.2119 17.5937 19.3526 10.4983 29.1855 10.4983C33.5926 10.4983 37.7363 12.0794 40.8572 14.8975L42.1846 16.0952L36.8808 21.3971L35.6871 20.3706C33.9309 18.8307 31.6261 18.0185 29.1875 18.0185C23.5886 18.0185 19.6987 21.8671 19.6987 27.3834C19.6987 32.8996 23.7164 36.9174 29.1875 36.9174Z" fill="white"/>
</svg>
