<svg width="55" height="55" viewBox="0 0 55 55" fill="none" xmlns="http://www.w3.org/2000/svg">
<g clip-path="url(#clip0_493_144)">
<rect width="55" height="55" rx="27.5" fill="#4338CA"/>
<g clip-path="url(#clip1_493_144)">
<g opacity="0.22">
<path opacity="0.02" d="M-27.3678 6.12785C-27.3678 45.8016 4.79813 77.9635 44.4768 77.9635C84.1554 77.9635 116.321 45.8016 116.321 6.12785C116.321 -33.5459 84.1554 -65.7078 44.4768 -65.7078C4.79813 -65.7078 -27.3678 -33.5459 -27.3678 6.12785Z" stroke="white" stroke-width="0.186713"/>
<path opacity="0.04" d="M-24.6079 4.69298C-24.6079 43.6057 6.94107 75.1506 45.8587 75.1506C84.7763 75.1506 116.325 43.6057 116.325 4.69298C116.325 -34.2197 84.7763 -65.7646 45.8587 -65.7646C6.94107 -65.7646 -24.6079 -34.2197 -24.6079 4.69298Z" stroke="white" stroke-width="0.186713"/>
<path opacity="0.06" d="M-21.5816 3.14843C-21.5816 41.2143 9.28026 72.0727 47.3503 72.0727C85.4203 72.0727 116.282 41.2143 116.282 3.14843C116.282 -34.9174 85.4203 -65.7759 47.3503 -65.7759C9.28026 -65.7759 -21.5816 -34.9174 -21.5816 3.14843Z" stroke="white" stroke-width="0.186713"/>
<path opacity="0.08" d="M-18.8146 1.71668C-18.8146 39.0198 11.429 69.26 48.7363 69.26C86.0437 69.26 116.287 39.0198 116.287 1.71668C116.287 -35.5865 86.0437 -65.8267 48.7363 -65.8267C11.429 -65.8267 -18.8146 -35.5865 -18.8146 1.71668Z" stroke="white" stroke-width="0.186713"/>
<path opacity="0.1" d="M-16.0532 0.282227C-16.0532 36.824 13.5732 66.447 50.1193 66.447C86.6653 66.447 116.292 36.824 116.292 0.282227C116.292 -36.2596 86.6653 -65.8826 50.1193 -65.8826C13.5732 -65.8826 -16.0532 -36.2596 -16.0532 0.282227Z" stroke="white" stroke-width="0.186713"/>
<path opacity="0.12" d="M-13.0272 -1.26325C-13.0272 34.4315 15.9125 63.3678 51.6115 63.3678C87.3105 63.3678 116.25 34.4315 116.25 -1.26325C116.25 -36.958 87.3105 -65.8943 51.6115 -65.8943C15.9125 -65.8943 -13.0272 -36.958 -13.0272 -1.26325Z" stroke="white" stroke-width="0.186713"/>
<path opacity="0.14" d="M-10.2591 -2.69671C-10.2591 32.2355 18.0619 60.5536 52.9975 60.5536C87.9332 60.5536 116.254 32.2355 116.254 -2.69671C116.254 -37.6289 87.9332 -65.947 52.9975 -65.947C18.0619 -65.947 -10.2591 -37.6289 -10.2591 -2.69671Z" stroke="white" stroke-width="0.186713"/>
<path opacity="0.16" d="M-7.49862 -4.12949C-7.49862 30.0415 20.2052 57.7425 54.3797 57.7425C88.5541 57.7425 116.258 30.0415 116.258 -4.12949C116.258 -38.3004 88.5541 -66.0015 54.3797 -66.0015C20.2052 -66.0015 -7.49862 -38.3004 -7.49862 -4.12949Z" stroke="white" stroke-width="0.186713"/>
<path opacity="0.18" d="M-4.73076 -5.56371C-4.73076 27.8444 22.3547 54.927 55.7664 54.927C89.1781 54.927 116.264 27.8444 116.264 -5.56371C116.264 -38.9718 89.1781 -66.0544 55.7664 -66.0544C22.3547 -66.0544 -4.73076 -38.9718 -4.73076 -5.56371Z" stroke="white" stroke-width="0.186713"/>
<path opacity="0.2" d="M-1.96924 -6.99781C-1.96924 25.649 24.4991 52.1145 57.1495 52.1145C89.7999 52.1145 116.268 25.649 116.268 -6.99781C116.268 -39.6446 89.7999 -66.1101 57.1495 -66.1101C24.4991 -66.1101 -1.96924 -39.6446 -1.96924 -6.99781Z" stroke="white" stroke-width="0.186713"/>
<path opacity="0.22" d="M1.05444 -8.54132C1.05444 23.2587 26.8364 49.0377 58.64 49.0377C90.4436 49.0377 116.226 23.2587 116.226 -8.54132C116.226 -40.3413 90.4436 -66.1204 58.64 -66.1204C26.8364 -66.1204 1.05444 -40.3413 1.05444 -8.54132Z" stroke="white" stroke-width="0.186713"/>
<path opacity="0.24" d="M3.824 -9.97556C3.824 21.0608 28.9869 46.2208 60.0269 46.2208C91.067 46.2208 116.23 21.0608 116.23 -9.97556C116.23 -41.0119 91.067 -66.1719 60.0269 -66.1719C28.9869 -66.1719 3.824 -41.0119 3.824 -9.97556Z" stroke="white" stroke-width="0.186713"/>
<path opacity="0.26" d="M6.58497 -11.4096C6.58497 18.8664 31.1308 43.4099 61.4095 43.4099C91.6883 43.4099 116.234 18.8664 116.234 -11.4096C116.234 -41.6855 91.6883 -66.229 61.4095 -66.229C31.1308 -66.229 6.58497 -41.6855 6.58497 -11.4096Z" stroke="white" stroke-width="0.186713"/>
<path opacity="0.28" d="M9.60907 -12.953C9.60907 16.4761 33.4685 40.3332 62.9005 40.3332C92.3326 40.3332 116.192 16.4761 116.192 -12.953C116.192 -42.3822 92.3326 -66.2393 62.9005 -66.2393C33.4685 -66.2393 9.60907 -42.3822 9.60907 -12.953Z" stroke="white" stroke-width="0.186713"/>
<path opacity="0.3" d="M12.3785 -14.3873C12.3785 14.2782 35.6188 37.5161 64.2872 37.5161C92.9556 37.5161 116.196 14.2782 116.196 -14.3873C116.196 -43.0528 92.9556 -66.2908 64.2872 -66.2908C35.6188 -66.2908 12.3785 -43.0528 12.3785 -14.3873Z" stroke="white" stroke-width="0.186713"/>
<path opacity="0.32" d="M15.1398 -15.8215C15.1398 12.0828 37.763 34.7037 65.6702 34.7037C93.5774 34.7037 116.201 12.0828 116.201 -15.8215C116.201 -43.7258 93.5774 -66.3467 65.6702 -66.3467C37.763 -66.3467 15.1398 -43.7258 15.1398 -15.8215Z" stroke="white" stroke-width="0.186713"/>
<path opacity="0.34" d="M18.1632 -17.3658C18.1632 9.69143 40.0998 31.6256 67.16 31.6256C94.2202 31.6256 116.157 9.69143 116.157 -17.3658C116.157 -44.423 94.2202 -66.3572 67.16 -66.3572C40.0998 -66.3572 18.1632 -44.423 18.1632 -17.3658Z" stroke="white" stroke-width="0.186713"/>
<path opacity="0.36" d="M20.9341 -18.8001C20.9341 7.4945 42.2518 28.8105 68.5486 28.8105C94.8454 28.8105 116.163 7.4945 116.163 -18.8001C116.163 -45.0947 94.8454 -66.4106 68.5486 -66.4106C42.2518 -66.4106 20.9341 -45.0947 20.9341 -18.8001Z" stroke="white" stroke-width="0.186713"/>
<path opacity="0.38" d="M23.6927 -20.233C23.6927 5.30042 44.3941 25.9993 69.9305 25.9993C95.467 25.9993 116.168 5.30042 116.168 -20.233C116.168 -45.7664 95.467 -66.4653 69.9305 -66.4653C44.3941 -66.4653 23.6927 -45.7664 23.6927 -20.233Z" stroke="white" stroke-width="0.186713"/>
<path opacity="0.4" d="M26.7167 -21.7775C26.7167 2.90899 46.7315 22.9213 71.4211 22.9213C96.1106 22.9213 116.125 2.90899 116.125 -21.7775C116.125 -46.464 96.1106 -66.4763 71.4211 -66.4763C46.7315 -66.4763 26.7167 -46.464 26.7167 -21.7775Z" stroke="white" stroke-width="0.186713"/>
<path opacity="0.42" d="M29.4885 -23.2117C29.4885 0.711174 48.8843 20.1045 72.8102 20.1045C96.7362 20.1045 116.132 0.711174 116.132 -23.2117C116.132 -47.1345 96.7362 -66.5278 72.8102 -66.5278C48.8843 -66.5278 29.4885 -47.1345 29.4885 -23.2117Z" stroke="white" stroke-width="0.186713"/>
<path opacity="0.44" d="M32.2467 -24.6454C32.2467 -1.4831 51.0253 17.2937 74.19 17.2937C97.3546 17.2937 116.133 -1.4831 116.133 -24.6454C116.133 -47.8077 97.3546 -66.5845 74.19 -66.5845C51.0253 -66.5845 32.2467 -47.8077 32.2467 -24.6454Z" stroke="white" stroke-width="0.186713"/>
<path opacity="0.46" d="M35.2705 -26.1893C35.2705 -3.87382 53.3627 14.2164 75.6805 14.2164C97.9983 14.2164 116.09 -3.87382 116.09 -26.1893C116.09 -48.5047 97.9983 -66.595 75.6805 -66.595C53.3627 -66.595 35.2705 -48.5047 35.2705 -26.1893Z" stroke="white" stroke-width="0.186713"/>
<path opacity="0.48" d="M38.0424 -27.623C38.0424 -6.07109 55.5156 11.4002 77.0699 11.4002C98.6242 11.4002 116.097 -6.07109 116.097 -27.623C116.097 -49.1749 98.6242 -66.6462 77.0699 -66.6462C55.5156 -66.6462 38.0424 -49.1749 38.0424 -27.623Z" stroke="white" stroke-width="0.186713"/>
<path opacity="0.5" d="M40.801 -29.057C40.801 -8.2656 57.6571 8.58915 78.4501 8.58915C99.2431 8.58915 116.099 -8.2656 116.099 -29.057C116.099 -49.8484 99.2431 -66.7031 78.4501 -66.7031C57.6571 -66.7031 40.801 -49.8484 40.801 -29.057Z" stroke="white" stroke-width="0.186713"/>
<path opacity="0.52" d="M43.8249 -30.6007C43.8249 -10.6561 59.9945 5.51223 79.9408 5.51223C99.8871 5.51223 116.057 -10.6561 116.057 -30.6007C116.057 -50.5453 99.8871 -66.7136 79.9408 -66.7136C59.9945 -66.7136 43.8249 -50.5453 43.8249 -30.6007Z" stroke="white" stroke-width="0.186713"/>
<path opacity="0.54" d="M46.597 -32.0342C46.597 -12.854 62.1476 2.69472 81.3303 2.69472C100.513 2.69472 116.064 -12.854 116.064 -32.0342C116.064 -51.2145 100.513 -66.7632 81.3303 -66.7632C62.1476 -66.7632 46.597 -51.2145 46.597 -32.0342Z" stroke="white" stroke-width="0.186713"/>
</g>
</g>
<g filter="url(#filter0_d_493_144)">
<path d="M29.0557 17.4102C31.7623 17.4104 34.0049 19.5911 34.0049 22.2832C34.0049 22.4003 34.002 22.5136 33.9932 22.6299H24.3135C22.97 22.6299 22.1963 23.6075 22.1963 24.9492C22.1965 26.2866 23.9169 27.4795 25.2607 27.4795L31.6328 27.5342C33.9533 27.6404 36.0615 30.1164 36.0615 32.7744C36.0615 32.787 36.0605 32.7926 36.0605 32.7988H22.2998C20.9835 32.7988 20.0879 33.8519 20.0879 35.1768C20.0883 36.5017 22.1047 37.707 23.4209 37.707H33C35.62 38.0481 37.748 40.0992 37.748 42.792C37.748 42.8164 37.7471 42.8469 37.7471 42.8711H17.1885C17.1885 42.8469 17.1875 42.8164 17.1875 42.792C17.1875 41.1507 17.8793 39.6928 19.0869 38.8311C20.109 38.0977 20.2987 37.6518 20.2988 37.1748C20.2988 36.3624 19.8593 36.1255 19.5059 35.5264C19.0419 34.7414 18.7667 33.7957 18.7666 32.7744C18.7666 30.9492 19.6796 29.4174 20.9316 28.5049C21.6132 28.0113 21.6748 27.9349 21.9854 27.6338C22.5311 27.1017 22.4175 26.33 22.1367 26.0088C21.3537 25.115 20.8789 23.8591 20.8789 22.2832C20.8789 19.591 23.2297 17.4102 25.9326 17.4102H29.0557ZM27.4688 12.0312C28.253 12.0315 28.8923 12.6698 28.8926 13.4551C28.8926 14.2395 28.2531 14.8796 27.4688 14.8799C26.6834 14.8799 26.0439 14.2396 26.0439 13.4551C26.0442 12.6696 26.6835 12.0312 27.4688 12.0312Z" fill="white"/>
</g>
</g>
<defs>
<filter id="filter0_d_493_144" x="-1.82617" y="-4.64821" width="58.5879" height="68.8672" filterUnits="userSpaceOnUse" color-interpolation-filters="sRGB">
<feFlood flood-opacity="0" result="BackgroundImageFix"/>
<feColorMatrix in="SourceAlpha" type="matrix" values="0 0 0 0 0 0 0 0 0 0 0 0 0 0 0 0 0 0 127 0" result="hardAlpha"/>
<feOffset dy="2.33421"/>
<feGaussianBlur stdDeviation="9.50684"/>
<feComposite in2="hardAlpha" operator="out"/>
<feColorMatrix type="matrix" values="0 0 0 0 0 0 0 0 0 0 0 0 0 0 0 0 0 0 0.65 0"/>
<feBlend mode="normal" in2="BackgroundImageFix" result="effect1_dropShadow_493_144"/>
<feBlend mode="normal" in="SourceGraphic" in2="effect1_dropShadow_493_144" result="shape"/>
</filter>
<clipPath id="clip0_493_144">
<rect width="55" height="55" rx="27.5" fill="white"/>
</clipPath>
<clipPath id="clip1_493_144">
<rect width="143.743" height="145.449" fill="white" transform="translate(-27.3926 -67.4609)"/>
</clipPath>
</defs>
</svg>
