<svg width="55" height="55" viewBox="0 0 55 55" fill="none" xmlns="http://www.w3.org/2000/svg">
<g clip-path="url(#clip0_493_127)">
<path d="M27.5 55C42.6878 55 55 42.6878 55 27.5C55 12.3122 42.6878 0 27.5 0C12.3122 0 0 12.3122 0 27.5C0 42.6878 12.3122 55 27.5 55Z" fill="#1DBF73"/>
<path d="M34.208 20.4685C35.8146 20.4685 37.117 19.166 37.117 17.5594C37.117 15.9528 35.8146 14.6504 34.208 14.6504C32.6014 14.6504 31.299 15.9528 31.299 17.5594C31.299 19.166 32.6014 20.4685 34.208 20.4685Z" fill="white"/>
<path d="M37.2469 22.376H23.9305V21.5034C23.9305 19.7896 25.6443 19.7571 26.5169 19.7571C27.5183 19.7571 27.972 19.8546 27.972 19.8546V15.1343C27.2641 15.0461 26.5514 15.0031 25.8381 15.0055C23.0579 15.0055 17.9175 15.7806 17.9175 21.6647V22.4129H15.4924V26.7769H17.9175V35.9902H15.6548V40.3543H26.5797V35.9858H23.9283V26.7726H31.1982V35.9858H28.9388V40.3499H39.5107V35.9858H37.2469V22.376Z" fill="white"/>
</g>
<defs>
<clipPath id="clip0_493_127">
<rect width="55" height="55" fill="white"/>
</clipPath>
</defs>
</svg>
