<svg width="36" height="36" viewBox="0 0 36 36" fill="none" xmlns="http://www.w3.org/2000/svg">
<g clip-path="url(#clip0_70_42911)">
<path d="M18 36C27.9411 36 36 27.9411 36 18C36 8.05887 27.9411 0 18 0C8.05887 0 0 8.05887 0 18C0 27.9411 8.05887 36 18 36Z" fill="#F0F0F0"/>
<path d="M0.000488281 18.0003C0.000488281 24.8231 3.79659 30.7588 9.39178 33.8117V2.18896C3.79659 5.24186 0.000488281 11.1776 0.000488281 18.0003Z" fill="#F0F0F0"/>
<path d="M17.9993 0.000976562C14.881 0.000976562 11.948 0.794313 9.39062 2.18959V33.8123C11.948 35.2076 14.881 36.001 17.9993 36.001C27.9404 36.001 35.9993 27.942 35.9993 18.001C35.9993 8.05991 27.9404 0.000976562 17.9993 0.000976562Z" fill="#496E2D"/>
<path d="M25.6965 20.9787C23.4193 22.624 20.2394 22.1119 18.5941 19.8347C16.9486 17.5575 17.4608 14.3776 19.738 12.7323C20.4481 12.2193 21.2458 11.916 22.0574 11.8106C20.496 11.5771 18.8454 11.9289 17.4647 12.9266C14.662 14.9517 14.0315 18.8654 16.0566 21.6682C18.0817 24.4708 21.9954 25.1014 24.7982 23.0761C26.1791 22.0784 27.0314 20.622 27.2998 19.0661C26.945 19.8034 26.4066 20.4656 25.6965 20.9787Z" fill="#F0F0F0"/>
<path d="M25.5993 11.7407L26.8821 13.1231L28.5933 12.3306L27.6748 13.9776L28.9575 15.3601L27.1071 14.9956L26.1887 16.6427L25.9636 14.7703L24.1133 14.4057L25.8245 13.6131L25.5993 11.7407Z" fill="#F0F0F0"/>
</g>
<defs>
<clipPath id="clip0_70_42911">
<rect width="36" height="36" fill="white"/>
</clipPath>
</defs>
</svg>
