<svg width="55" height="55" viewBox="0 0 55 55" fill="none" xmlns="http://www.w3.org/2000/svg">
<rect width="55" height="55" fill="#3672FF"/>
<path d="M35.3061 25.002H31.1206V19.7697H41.5851C41.5851 20.8036 38.9249 25.002 35.3061 25.002ZM11.835 12.2943V10.5005L17.9336 10.5127V10.5066L34.3145 10.5005C38.8907 10.5005 41.5851 14.1321 41.5851 15.7327H16.1703C16.1703 14.0465 14.9824 12.2943 11.835 12.2943ZM16.1703 19.7697H26.4856V25.002H16.1703V19.7697ZM26.4856 34.2706H16.1703V29.0384H26.4856V34.2706ZM31.12 29.0384H35.7543C40.4516 29.0384 42.781 32.7996 42.781 34.2706H31.1206L31.12 29.0384ZM16.1703 38.3076H26.4856V40.5502H31.12V38.3076L42.781 38.3113C42.781 40.1571 39.425 43.5405 35.9041 43.5405H11.835V41.7461C14.9573 41.7461 16.1703 40.0953 16.1703 38.3076Z" fill="white"/>
</svg>
