<svg width="36" height="36" viewBox="0 0 36 36" fill="none" xmlns="http://www.w3.org/2000/svg">
<g clip-path="url(#clip0_70_42871)">
<path d="M18 36C27.9411 36 36 27.9411 36 18C36 8.05887 27.9411 0 18 0C8.05887 0 0 8.05887 0 18C0 27.9411 8.05887 36 18 36Z" fill="#F0F0F0"/>
<path d="M3.72097 7.03979C2.30705 8.87938 1.24091 10.9997 0.620117 13.303H9.98419L3.72097 7.03979Z" fill="#0052B4"/>
<path d="M35.3806 13.3032C34.7598 10.9999 33.6935 8.87962 32.2797 7.04004L26.0166 13.3032H35.3806Z" fill="#0052B4"/>
<path d="M0.620117 22.6956C1.24098 24.9989 2.30713 27.1191 3.72097 28.9586L9.98399 22.6956H0.620117Z" fill="#0052B4"/>
<path d="M28.9582 3.71982C27.1186 2.30591 24.9984 1.23976 22.6951 0.618896V9.98291L28.9582 3.71982Z" fill="#0052B4"/>
<path d="M7.04102 32.2769C8.8806 33.6908 11.0009 34.757 13.3042 35.3778V26.0139L7.04102 32.2769Z" fill="#0052B4"/>
<path d="M13.3041 0.618896C11.0008 1.23976 8.88053 2.3059 7.04102 3.71975L13.3041 9.98283V0.618896Z" fill="#0052B4"/>
<path d="M22.6951 35.3778C24.9984 34.757 27.1186 33.6908 28.9582 32.277L22.6951 26.0139V35.3778Z" fill="#0052B4"/>
<path d="M26.0166 22.6956L32.2797 28.9587C33.6935 27.1192 34.7598 24.9988 35.3806 22.6956H26.0166Z" fill="#0052B4"/>
<path d="M35.8476 15.6522H20.3479H20.3479V0.152367C19.5793 0.0523125 18.7957 0 18 0C17.2041 0 16.4207 0.0523125 15.6522 0.152367V15.6521V15.6521H0.152367C0.0523125 16.4207 0 17.2043 0 18C0 18.7959 0.0523125 19.5793 0.152367 20.3478H15.6521H15.6521V35.8476C16.4207 35.9477 17.2041 36 18 36C18.7957 36 19.5793 35.9478 20.3478 35.8476V20.3479V20.3479H35.8476C35.9477 19.5793 36 18.7959 36 18C36 17.2043 35.9477 16.4207 35.8476 15.6522Z" fill="#D80027"/>
<path d="M22.6956 22.6968L30.7278 30.7291C31.0972 30.3598 31.4496 29.9737 31.7858 29.5735L24.9091 22.6968H22.6956V22.6968Z" fill="#D80027"/>
<path d="M13.3043 22.6968H13.3041L5.27197 30.7289C5.64125 31.0983 6.02734 31.4508 6.42756 31.787L13.3043 24.9101V22.6968Z" fill="#D80027"/>
<path d="M13.3039 13.3037V13.3035L5.27169 5.27124C4.90226 5.64052 4.54986 6.02661 4.21362 6.42683L11.0904 13.3036H13.3039V13.3037Z" fill="#D80027"/>
<path d="M22.6956 13.3054L30.7278 5.27308C30.3586 4.90366 29.9725 4.55125 29.5723 4.21509L22.6956 11.0919V13.3054Z" fill="#D80027"/>
</g>
<defs>
<clipPath id="clip0_70_42871">
<rect width="36" height="36" fill="white"/>
</clipPath>
</defs>
</svg>
