<svg width="55" height="55" viewBox="0 0 55 55" fill="none" xmlns="http://www.w3.org/2000/svg">
<path d="M0 27.3921C0 12.2639 12.2639 0 27.3921 0V0C42.5203 0 54.7842 12.2639 54.7842 27.3921V27.3921C54.7842 42.5203 42.5203 54.7842 27.3921 54.7842V54.7842C12.2639 54.7842 0 42.5203 0 27.3921V27.3921Z" fill="#16A800"/>
<path d="M38.5892 32.0216C37.0458 32.0216 35.5931 31.3679 34.2857 30.3056L34.6035 28.7985L34.6126 28.744C34.9031 27.1461 35.8019 24.4587 38.5892 24.4587C40.6774 24.4587 42.3752 26.1565 42.3752 28.2447C42.3752 30.3329 40.6774 32.0216 38.5892 32.0216ZM38.5892 20.6273C35.0302 20.6273 32.2792 22.9334 31.1534 26.7376C29.4465 24.1682 28.1482 21.0903 27.3946 18.4937H23.5633V28.4535C23.5633 30.4237 21.9653 32.0216 19.9952 32.0216C18.025 32.0216 16.4271 30.4237 16.4271 28.4535V18.4846H12.6047V28.4444C12.6047 32.521 15.9186 35.8712 19.9952 35.8712C24.0717 35.8712 27.3856 32.521 27.3856 28.4444V26.7739C28.1301 28.3264 29.038 29.8971 30.1456 31.2771L27.8032 42.2992H31.7163L33.4141 34.3095C34.9031 35.2629 36.61 35.8621 38.5711 35.8621C42.7656 35.8621 46.1794 32.4302 46.1794 28.2265C46.1885 24.041 42.7838 20.6273 38.5892 20.6273Z" fill="white"/>
</svg>
