<svg width="173" height="48" viewBox="0 0 173 48" fill="none" xmlns="http://www.w3.org/2000/svg">
<g clip-path="url(#clip0_68_40849)">
<path d="M18.8124 30.5423H7.41486C5.84848 30.5423 3.44951 29.1086 3.44951 27.532C3.44951 25.9558 4.51639 24.7102 6.08327 24.7102H22.4527C22.4527 24.6988 22.4537 24.689 22.4537 24.6782C22.4537 21.5113 19.9462 18.5678 17.1847 18.4441L9.60493 18.3763C8.00712 18.3763 5.95808 16.9584 5.95808 15.3657C5.95808 13.7716 6.8784 12.606 8.4757 12.606H19.9924C20.0022 12.4702 20.0075 12.3345 20.0075 12.1972C20.0075 8.99305 17.3373 6.397 14.1196 6.397H10.4038C7.1866 6.397 4.38969 8.99305 4.38969 12.1972C4.38969 14.0718 4.95706 15.566 5.88845 16.6299C6.22229 17.0122 6.35929 17.93 5.7077 18.563C5.33842 18.9215 5.26375 19.0087 4.45329 19.5982C2.96559 20.6827 1.88112 22.5075 1.88112 24.6777C1.88112 25.8914 2.20389 27.0179 2.75744 27.953C3.17927 28.6639 3.70039 28.9425 3.70039 29.9151C3.70039 30.4797 3.47615 31.0129 2.26096 31.8794C0.82228 32.9036 0 34.6452 0 36.5944C0 36.6263 0.00226314 36.6567 0.00226314 36.6887H24.4588C24.4588 36.6567 24.4605 36.6263 24.4605 36.5944C24.46 33.3902 21.9291 30.948 18.8124 30.5423Z" fill="white"/>
<path d="M12.231 0C11.2951 0 10.5372 0.757926 10.5372 1.69358C10.5372 2.62798 11.2953 3.38716 12.231 3.38716C13.1654 3.38716 13.9241 2.62773 13.9241 1.69358C13.9241 0.757926 13.1654 0 12.231 0Z" fill="white"/>
<path fill-rule="evenodd" clip-rule="evenodd" d="M40.1854 14.784C37.4388 14.784 34.667 16.2578 33.111 18.4552V14.784H27.1981V36.9003H33.5333V24.0518C33.5333 21.8416 35.3297 20.0497 37.5456 20.0497C39.7616 20.0497 41.558 21.3502 41.558 24.0518V36.9003H47.8932V22.2614C47.8932 17.4293 44.3258 14.784 40.1854 14.784ZM66.2654 17.8096C64.6073 15.8089 62.334 14.5733 59.8247 14.5733C54.1881 14.5733 50.4274 19.6184 50.4274 25.8417C50.4274 32.9782 54.7512 37.1107 59.8247 37.1107C62.334 37.1107 64.6073 35.8749 66.2654 33.8742V36.2681H72.6005V6.77988H66.2654V17.8096ZM61.6198 32.0556C58.9373 32.0556 56.7628 29.1574 56.7628 25.8417C56.7628 22.5264 58.9373 19.6282 61.6198 19.6282C64.3021 19.6282 66.2654 22.5264 66.2654 25.8417C66.2654 29.1574 64.3021 32.0556 61.6198 32.0556ZM148.518 14.784C145.772 14.784 143 16.2578 141.444 18.4552V16.469L135.531 14.5733V36.9001H141.866V24.0515C141.866 21.8414 143.662 20.0495 145.878 20.0495C148.094 20.0495 149.891 21.3499 149.891 24.0515V36.9001H156.226V22.2612C156.226 17.4293 152.658 14.784 148.518 14.784ZM125.606 36.6897H131.941V14.3629L125.606 16.0477V36.6897ZM88.7556 14.5733C86.2462 14.5733 83.9727 15.8089 82.3148 17.8096V15.4157H75.9794V44.4829H82.3148V33.8742C83.9727 35.8749 86.2462 37.1107 88.7556 37.1107C94.3921 37.1107 98.1529 32.0654 98.1529 25.8417C98.1529 18.7056 93.829 14.5733 88.7556 14.5733ZM86.9604 32.0556C84.2782 32.0556 82.3148 29.1574 82.3148 25.8417C82.3148 22.5264 84.2784 19.6282 86.9604 19.6282C89.643 19.6282 91.8174 22.5264 91.8174 25.8417C91.8177 29.1574 89.643 32.0556 86.9604 32.0556ZM170.586 31.6343C168.225 31.6343 167.84 30.4083 167.84 28.896V19.8388H172.275V15.2048H167.84V8.02348L161.505 9.71757V15.2048H157.915V19.8388H161.505V30.5712C161.505 35.1419 164.531 36.4788 168.263 36.4788C169.917 36.4788 171.311 36.4582 172.486 36.4179V31.6142C171.937 31.6275 171.309 31.6343 170.586 31.6343ZM111.668 14.3626C105.37 14.3626 100.265 19.455 100.265 25.7366C100.265 32.0182 105.37 37.1107 111.668 37.1107C117.966 37.1107 123.071 32.0182 123.071 25.7366C123.071 19.455 117.966 14.3626 111.668 14.3626ZM111.457 31.845C108.258 31.845 106.811 29.1102 106.811 25.7366C106.811 22.363 108.575 19.6282 111.457 19.6282C114.656 19.6282 116.314 22.363 116.314 25.7366C116.314 29.1102 114.867 31.845 111.457 31.845Z" fill="white"/>
<path fill-rule="evenodd" clip-rule="evenodd" d="M116.029 42.1347C116.73 42.1347 117.365 42.4406 117.789 43.1186L119.06 42.3737C118.517 41.2966 117.419 40.7244 116.042 40.7244C113.805 40.7244 112.217 42.2274 112.217 44.3557C112.217 46.4836 113.805 47.9998 116.042 47.9998C117.419 47.9998 118.517 47.4012 119.06 46.3373L117.789 45.5925C117.365 46.271 116.73 46.5769 116.029 46.5769C114.811 46.5769 113.885 45.7388 113.885 44.3557C113.885 42.9859 114.811 42.1347 116.029 42.1347ZM123.068 47.9067H124.722V38.0379H123.068V47.9067ZM129.539 47.9067H131.193V40.8046H129.539V47.9067ZM130.372 37.6387C129.763 37.6387 129.313 38.0776 129.313 38.6364C129.313 39.1952 129.763 39.6342 130.372 39.6342C130.994 39.6342 131.431 39.1814 131.431 38.5967C131.431 38.0512 130.981 37.6387 130.372 37.6387ZM139.08 40.7244C136.975 40.7244 135.426 42.2405 135.426 44.3557C135.426 46.4703 136.962 47.9998 139.331 47.9998C140.549 47.9998 141.541 47.6006 142.177 46.8429L141.29 45.8182C140.787 46.3371 140.165 46.59 139.371 46.59C138.14 46.59 137.279 45.9248 137.081 44.8873H142.627C142.64 44.7277 142.653 44.5284 142.653 44.3954C142.653 42.1744 141.144 40.7244 139.08 40.7244ZM137.068 43.7838C137.227 42.7463 138.007 42.0545 139.08 42.0545C140.165 42.0545 140.946 42.7596 141.078 43.7838H137.068ZM150.896 40.7244C149.864 40.7244 149.004 41.0706 148.461 41.7222V40.8046H146.886V47.9067H148.54V44.3157C148.54 42.8929 149.334 42.1744 150.512 42.1744C151.571 42.1744 152.193 42.7863 152.193 44.0495V47.9067H153.848V43.8368C153.848 41.6958 152.591 40.7244 150.896 40.7244ZM161.455 46.63C160.82 46.63 160.476 46.2574 160.476 45.5661V42.1877H162.369V40.8576H160.476V39.235H158.822V40.8576H157.657V42.1877H158.822V45.6061C158.822 47.1752 159.708 48 161.257 48C161.853 48 162.448 47.8404 162.845 47.5214L162.382 46.3376C162.13 46.5367 161.8 46.63 161.455 46.63ZM167.873 42.8662C167.873 42.4001 168.349 42.0678 169.355 42.0678C170.03 42.0678 170.705 42.2008 171.38 42.6L172.015 41.3363C171.38 40.9509 170.308 40.7244 169.368 40.7244C167.463 40.7244 166.258 41.6022 166.258 42.9457C166.258 45.7788 170.626 44.502 170.626 45.8587C170.626 46.3507 170.189 46.6433 169.144 46.6433C168.257 46.6433 167.304 46.3507 166.682 45.9381L166.046 47.2019C166.682 47.6541 167.86 47.9998 169.037 47.9998C171.023 47.9998 172.241 47.1352 172.241 45.8052C172.241 43.0258 167.873 44.3024 167.873 42.8662Z" fill="white"/>
<path d="M127.997 12.5612C129.663 12.5612 131.013 11.2107 131.013 9.54484C131.013 7.87894 129.663 6.52847 127.997 6.52847C126.331 6.52847 124.98 7.87894 124.98 9.54484C124.98 11.2107 126.331 12.5612 127.997 12.5612Z" fill="white"/>
</g>
<defs>
<clipPath id="clip0_68_40849">
<rect width="173" height="48" fill="white"/>
</clipPath>
</defs>
</svg>
