<svg width="687" height="191" viewBox="0 0 687 191" fill="none" xmlns="http://www.w3.org/2000/svg">
<path d="M74.835 121.496H29.496C23.265 121.496 13.722 115.793 13.722 109.521C13.722 103.251 17.966 98.296 24.199 98.296H89.316C89.316 98.251 89.32 98.212 89.32 98.169C89.32 85.571 79.345 73.862 68.36 73.37L38.208 73.1C31.852 73.1 23.701 67.46 23.701 61.124C23.701 54.783 27.362 50.146 33.716 50.146H79.529C79.568 49.606 79.589 49.066 79.589 48.52C79.589 35.774 68.967 25.447 56.167 25.447H41.386C28.588 25.447 17.462 35.774 17.462 48.52C17.462 55.977 19.719 61.921 23.424 66.153C24.752 67.674 25.297 71.325 22.705 73.843C21.236 75.269 20.939 75.616 17.715 77.961C11.797 82.275 7.483 89.534 7.483 98.167C7.483 102.995 8.767 107.476 10.969 111.196C12.647 114.024 14.72 115.132 14.72 119.001C14.72 121.247 13.828 123.368 8.994 126.815C3.271 130.889 0 137.817 0 145.571C0 145.698 0.00900269 145.819 0.00900269 145.946H97.296C97.296 145.819 97.303 145.698 97.303 145.571C97.301 132.825 87.233 123.11 74.835 121.496Z" fill="url(#paint0_linear_23_3)"/>
<path d="M48.654 0C44.931 0 41.916 3.015 41.916 6.737C41.916 10.454 44.932 13.474 48.654 13.474C52.371 13.474 55.389 10.453 55.389 6.737C55.389 3.015 52.371 0 48.654 0Z" fill="url(#paint1_linear_23_3)"/>
<path fill-rule="evenodd" clip-rule="evenodd" d="M159.856 58.81C148.93 58.81 137.904 64.673 131.714 73.414V58.81H108.193V146.788H133.394V95.677C133.394 86.885 140.54 79.757 149.355 79.757C158.17 79.757 165.316 84.93 165.316 95.677V146.788H190.517V88.555C190.517 69.333 176.326 58.81 159.856 58.81ZM263.601 70.846C257.005 62.887 247.962 57.972 237.98 57.972C215.558 57.972 200.598 78.041 200.598 102.797C200.598 131.186 217.798 147.625 237.98 147.625C247.962 147.625 257.005 142.709 263.601 134.75V144.273H288.802V26.97H263.601V70.846ZM245.121 127.516C234.45 127.516 225.8 115.987 225.8 102.797C225.8 89.609 234.45 78.08 245.121 78.08C255.791 78.08 263.601 89.609 263.601 102.797C263.601 115.987 255.791 127.516 245.121 127.516ZM590.799 58.81C579.873 58.81 568.847 64.673 562.657 73.414V65.513L539.136 57.972V146.787H557.617H564.337V95.676C564.337 86.884 571.483 79.756 580.298 79.756C589.113 79.756 596.259 84.929 596.259 95.676V146.787H621.46V88.554C621.46 69.333 607.268 58.81 590.799 58.81ZM499.654 145.95H524.855V57.135L499.654 63.837V145.95ZM353.066 57.972C343.084 57.972 334.04 62.887 327.445 70.846V61.323H302.243V176.951H327.445V134.75C334.04 142.709 343.084 147.625 353.066 147.625C375.488 147.625 390.448 127.555 390.448 102.797C390.448 74.41 373.248 57.972 353.066 57.972ZM345.925 127.516C335.255 127.516 327.445 115.987 327.445 102.797C327.445 89.609 335.256 78.08 345.925 78.08C356.596 78.08 365.246 89.609 365.246 102.797C365.247 115.987 356.596 127.516 345.925 127.516ZM678.583 125.84C669.191 125.84 667.662 120.963 667.662 114.947V78.918H685.304V60.484H667.662V31.917L642.462 38.656V60.484H628.181V78.918H642.462V121.611C642.462 139.793 654.497 145.111 669.343 145.111C675.923 145.111 681.47 145.029 686.144 144.869V125.76C683.959 125.813 681.46 125.84 678.583 125.84ZM444.211 57.134C419.158 57.134 398.849 77.391 398.849 102.379C398.849 127.367 419.159 147.625 444.211 147.625C469.263 147.625 489.573 127.367 489.573 102.379C489.573 77.391 469.263 57.134 444.211 57.134ZM443.371 126.678C430.644 126.678 424.891 115.799 424.891 102.379C424.891 88.959 431.905 78.08 443.371 78.08C456.098 78.08 462.692 88.959 462.692 102.379C462.692 115.799 456.937 126.678 443.371 126.678Z" fill="black"/>
<path fill-rule="evenodd" clip-rule="evenodd" d="M461.558 167.61C464.349 167.61 466.875 168.827 468.56 171.524L473.615 168.561C471.457 164.276 467.087 162 461.611 162C452.713 162 446.394 167.979 446.394 176.445C446.394 184.91 452.712 190.941 461.611 190.941C467.087 190.941 471.457 188.56 473.615 184.328L468.56 181.365C466.875 184.064 464.349 185.281 461.558 185.281C456.714 185.281 453.028 181.947 453.028 176.445C453.028 170.996 456.715 167.61 461.558 167.61ZM489.558 190.571H496.14V151.313H489.558V190.571ZM515.299 190.571H521.88V162.319H515.299V190.571ZM518.615 149.725C516.193 149.725 514.403 151.471 514.403 153.694C514.403 155.917 516.193 157.663 518.615 157.663C521.09 157.663 522.828 155.862 522.828 153.536C522.828 151.366 521.037 149.725 518.615 149.725ZM553.253 162C544.881 162 538.721 168.031 538.721 176.445C538.721 184.857 544.828 190.941 554.254 190.941C559.097 190.941 563.046 189.353 565.573 186.339L562.045 182.263C560.045 184.327 557.57 185.333 554.411 185.333C549.515 185.333 546.092 182.687 545.303 178.56H567.364C567.417 177.925 567.469 177.132 567.469 176.603C567.468 167.768 561.467 162 553.253 162ZM545.25 174.17C545.882 170.043 548.988 167.291 553.253 167.291C557.57 167.291 560.677 170.096 561.203 174.17H545.25ZM600.259 162C596.152 162 592.73 163.377 590.571 165.969V162.319H584.305V190.571H590.887V176.286C590.887 170.626 594.046 167.768 598.732 167.768C602.944 167.768 605.419 170.202 605.419 175.227V190.571H612V174.381C612 165.864 606.999 162 600.259 162ZM642.263 185.492C639.736 185.492 638.367 184.01 638.367 181.26V167.821H645.896V162.53H638.367V156.075H631.786V162.53H627.152V167.821H631.786V181.419C631.786 187.661 635.313 190.942 641.474 190.942C643.843 190.942 646.212 190.307 647.792 189.038L645.949 184.329C644.948 185.121 643.633 185.492 642.263 185.492ZM667.791 170.52C667.791 168.666 669.687 167.344 673.688 167.344C676.373 167.344 679.058 167.873 681.744 169.461L684.27 164.434C681.744 162.901 677.478 162 673.74 162C666.159 162 661.367 165.492 661.367 170.836C661.367 182.106 678.742 177.027 678.742 182.424C678.742 184.381 677.005 185.545 672.846 185.545C669.318 185.545 665.528 184.381 663.053 182.74L660.525 187.767C663.053 189.566 667.739 190.941 672.424 190.941C680.322 190.941 685.166 187.502 685.166 182.211C685.166 171.155 667.791 176.233 667.791 170.52Z" fill="#010101"/>
<path d="M509.166 49.968C515.793 49.968 521.165 44.5958 521.165 37.969C521.165 31.3421 515.793 25.97 509.166 25.97C502.539 25.97 497.167 31.3421 497.167 37.969C497.167 44.5958 502.539 49.968 509.166 49.968Z" fill="#010101"/>
<defs>
<linearGradient id="paint0_linear_23_3" x1="-0.0013" y1="85.6995" x2="97.3015" y2="85.6995" gradientUnits="userSpaceOnUse">
<stop/>
<stop offset="0.0769231"/>
<stop offset="1"/>
</linearGradient>
<linearGradient id="paint1_linear_23_3" x1="41.9157" y1="6.7376" x2="55.3894" y2="6.7376" gradientUnits="userSpaceOnUse">
<stop stop-color="#F4C9B6"/>
<stop offset="1" stop-color="#E04F7E"/>
</linearGradient>
</defs>
</svg>
