<svg width="40" height="40" viewBox="0 0 40 40" fill="none" xmlns="http://www.w3.org/2000/svg">
<rect x="0.5" y="0.5" width="39" height="39" rx="19.5" fill="black"/>
<rect x="0.5" y="0.5" width="39" height="39" rx="19.5" stroke="white"/>
<g clip-path="url(#clip0_30_376218)">
<path d="M29.79 13.7346C29.5783 13.6312 29.4866 13.8287 29.3633 13.9296C29.3208 13.9621 29.285 14.0046 29.2491 14.0429C28.9391 14.3737 28.5775 14.5904 28.105 14.5646C27.4141 14.5262 26.8241 14.7429 26.3025 15.2712C26.1916 14.6196 25.8233 14.2312 25.2633 13.9812C24.97 13.8512 24.6733 13.7221 24.4675 13.4396C24.3241 13.2387 24.285 13.0146 24.2133 12.7946C24.1675 12.6612 24.1216 12.5254 23.9691 12.5029C23.8025 12.4771 23.7375 12.6162 23.6725 12.7329C23.4116 13.2096 23.3108 13.7346 23.3208 14.2662C23.3433 15.4629 23.8483 16.4162 24.8525 17.0937C24.9666 17.1712 24.9958 17.2496 24.96 17.3629C24.8916 17.5962 24.81 17.8229 24.7383 18.0571C24.6925 18.2062 24.6241 18.2379 24.4641 18.1737C23.9235 17.9414 23.4324 17.6076 23.0175 17.1904C22.3033 16.5004 21.6583 15.7387 20.8533 15.1421C20.6668 15.0042 20.4753 14.8733 20.2791 14.7496C19.4583 13.9521 20.3875 13.2971 20.6025 13.2196C20.8275 13.1379 20.68 12.8596 19.9533 12.8629C19.2266 12.8662 18.5616 13.1087 17.7141 13.4329C17.5882 13.4811 17.4586 13.5193 17.3266 13.5471C16.5346 13.3978 15.7247 13.3692 14.9241 13.4621C13.3533 13.6371 12.0991 14.3804 11.1766 15.6479C10.0683 17.1712 9.80746 18.9029 10.1266 20.7079C10.4625 22.6112 11.4341 24.1871 12.9266 25.4187C14.475 26.6962 16.2575 27.3221 18.2916 27.2021C19.5266 27.1312 20.9025 26.9654 22.4533 25.6521C22.845 25.8471 23.255 25.9246 23.9366 25.9829C24.4616 26.0321 24.9666 25.9579 25.3575 25.8762C25.97 25.7462 25.9275 25.1787 25.7066 25.0754C23.9108 24.2387 24.305 24.5796 23.9458 24.3037C24.8591 23.2237 26.2341 22.1021 26.7725 18.4679C26.8141 18.1787 26.7783 17.9971 26.7725 17.7637C26.7691 17.6221 26.8016 17.5662 26.9641 17.5504C27.415 17.5036 27.8524 17.3691 28.2516 17.1546C29.415 16.5187 29.885 15.4754 29.9958 14.2237C30.0125 14.0321 29.9925 13.8354 29.79 13.7346ZM19.6508 24.9996C17.91 23.6312 17.0658 23.1804 16.7175 23.1996C16.3908 23.2196 16.45 23.5921 16.5216 23.8354C16.5966 24.0754 16.6941 24.2404 16.8308 24.4512C16.9258 24.5904 16.9908 24.7979 16.7366 24.9537C16.1758 25.3004 15.2016 24.8371 15.1558 24.8146C14.0216 24.1462 13.0725 23.2646 12.405 22.0587C11.76 20.8979 11.385 19.6529 11.3233 18.3237C11.3066 18.0021 11.4008 17.8887 11.7208 17.8304C12.1409 17.75 12.5713 17.739 12.995 17.7979C14.7716 18.0579 16.2833 18.8521 17.5516 20.1096C18.275 20.8262 18.8225 21.6821 19.3866 22.5187C19.9866 23.4071 20.6316 24.2537 21.4533 24.9471C21.7433 25.1904 21.9741 25.3754 22.1958 25.5112C21.5275 25.5862 20.4125 25.6029 19.6508 24.9996ZM20.4841 19.6329C20.484 19.5915 20.4939 19.5507 20.5131 19.514C20.5322 19.4773 20.56 19.4458 20.5941 19.4223C20.6281 19.3987 20.6674 19.3838 20.7085 19.3788C20.7496 19.3739 20.7913 19.379 20.83 19.3937C20.8793 19.4114 20.9218 19.444 20.9517 19.4871C20.9816 19.5301 20.9973 19.5813 20.9966 19.6337C20.9967 19.6676 20.9901 19.7011 20.9771 19.7323C20.9642 19.7636 20.9451 19.792 20.9211 19.8158C20.897 19.8396 20.8685 19.8584 20.8371 19.871C20.8057 19.8837 20.7721 19.89 20.7383 19.8896C20.7047 19.8897 20.6714 19.8831 20.6404 19.8702C20.6094 19.8573 20.5813 19.8383 20.5577 19.8144C20.5341 19.7905 20.5155 19.7622 20.503 19.731C20.4906 19.6998 20.4836 19.6665 20.4841 19.6329ZM23.0758 20.9629C22.9091 21.0304 22.7433 21.0887 22.5841 21.0962C22.3447 21.1046 22.1097 21.0298 21.9191 20.8846C21.6908 20.6929 21.5275 20.5862 21.4591 20.2529C21.4356 20.09 21.4401 19.9243 21.4725 19.7629C21.5308 19.4904 21.4658 19.3154 21.2733 19.1571C21.1175 19.0271 20.9183 18.9912 20.7 18.9912C20.6252 18.9869 20.5526 18.9646 20.4883 18.9262C20.3966 18.8812 20.3216 18.7679 20.3933 18.6279C20.4166 18.5829 20.5266 18.4729 20.5533 18.4529C20.85 18.2846 21.1925 18.3396 21.5083 18.4662C21.8016 18.5862 22.0233 18.8062 22.3425 19.1179C22.6683 19.4937 22.7275 19.5979 22.9133 19.8796C23.06 20.1004 23.1933 20.3271 23.2841 20.5862C23.34 20.7487 23.2683 20.8812 23.0758 20.9629Z" fill="#4D6BFE"/>
</g>
<defs>
<clipPath id="clip0_30_376218">
<rect width="20" height="20" fill="white" transform="translate(10 10)"/>
</clipPath>
</defs>
</svg>
