<svg width="40" height="40" viewBox="0 0 40 40" fill="none" xmlns="http://www.w3.org/2000/svg">
<rect x="0.5" y="0.5" width="39" height="39" rx="19.5" fill="black"/>
<rect x="0.5" y="0.5" width="39" height="39" rx="19.5" stroke="white"/>
<g clip-path="url(#clip0_66_40255)">
<path d="M10.694 9.94908L22.8938 9.05001C24.392 8.92168 24.777 9.00821 25.7186 9.69168L29.6133 12.4292C30.2564 12.9 30.4706 13.0283 30.4706 13.5409V28.5545C30.4706 29.4953 30.1274 30.0519 28.9291 30.137L14.7618 30.9928C13.8613 31.0353 13.4338 30.907 12.9622 30.3079L10.0949 26.5869C9.57937 25.902 9.3667 25.3894 9.3667 24.7903V11.4451C9.3667 10.6758 9.7099 10.0341 10.694 9.94908Z" fill="white"/>
<path fill-rule="evenodd" clip-rule="evenodd" d="M22.8945 9.05001L10.6926 9.94908C9.7099 10.0341 9.3667 10.6758 9.3667 11.4451V24.7903C9.3667 25.3894 9.5801 25.902 10.0942 26.5869L12.9622 30.3079C13.4338 30.907 13.8613 31.0353 14.7611 30.9928L28.9298 30.137C30.1281 30.0519 30.4713 29.4953 30.4713 28.5545V13.5409C30.4713 13.0547 30.2784 12.9147 29.7108 12.4996L29.614 12.4292L25.72 9.69168C24.7777 9.00821 24.3927 8.92168 22.8938 9.05001H22.8945ZM15.0816 13.2953C13.9251 13.373 13.6618 13.3906 13.0055 12.8575L11.3357 11.5316C11.1648 11.36 11.2506 11.1459 11.6782 11.1033L23.4078 10.2483C24.392 10.1625 24.906 10.5049 25.291 10.8041L27.3033 12.2583C27.3891 12.3016 27.6025 12.5575 27.3458 12.5575L15.2312 13.285L15.0816 13.2953ZM13.733 28.4261V15.6808C13.733 15.1242 13.9046 14.8675 14.4179 14.8243L28.33 14.0117C28.8015 13.9692 29.0156 14.2684 29.0156 14.8243V27.4845C29.0156 28.0411 28.9298 28.5119 28.1591 28.5545L14.8462 29.3245C14.0762 29.367 13.733 29.1111 13.733 28.4261ZM26.8758 16.3643C26.9608 16.7493 26.8758 17.1343 26.4893 17.1783L25.8484 17.3051V26.7153C25.291 27.0145 24.7777 27.1853 24.3494 27.1853C23.6645 27.1853 23.4929 26.9712 22.9796 26.3303L18.7842 19.7435V26.1161L20.1115 26.4161C20.1115 26.4161 20.1115 27.1861 19.0408 27.1861L16.0877 27.3569C16.0019 27.1853 16.0877 26.7578 16.3869 26.6727L17.1576 26.4593V18.0333L16.0877 17.9468C16.0019 17.5618 16.2153 17.0059 16.8152 16.9634L19.9832 16.7493L24.3494 23.4226V17.5193L23.2362 17.3917C23.1512 16.9201 23.4929 16.5784 23.9212 16.5359L26.8758 16.3643Z" fill="black"/>
</g>
<defs>
<clipPath id="clip0_66_40255">
<rect width="21.2667" height="22" fill="white" transform="translate(9.3667 9)"/>
</clipPath>
</defs>
</svg>
