<svg width="40" height="40" viewBox="0 0 40 40" fill="none" xmlns="http://www.w3.org/2000/svg">
<rect x="0.5" y="0.5" width="39" height="39" rx="19.5" fill="black"/>
<rect x="0.5" y="0.5" width="39" height="39" rx="19.5" stroke="white"/>
<path d="M18.1884 17.9965C20.736 16.5813 24.225 14.6425 24.225 9H20.0002C20.0002 12.157 18.4633 13.0109 16.1367 14.3034C13.5892 15.7192 10.1001 17.6571 10.1001 23.3002H14.3249C14.3249 20.143 15.8619 19.2891 18.1884 17.9965Z" fill="#FF3C00"/>
<path d="M25.501 16.7C25.501 19.8571 23.964 20.711 21.6374 22.0033C19.0906 23.4186 15.6008 25.3571 15.6008 31H19.8255C19.8255 27.8429 21.3624 26.989 23.689 25.6965C26.2365 24.2812 29.7254 22.3429 29.7254 16.7H25.501Z" fill="#FF3C00"/>
</svg>
