<svg width="40" height="40" viewBox="0 0 40 40" fill="none" xmlns="http://www.w3.org/2000/svg">
<rect x="0.5" y="0.5" width="39" height="39" rx="19.5" fill="black"/>
<rect x="0.5" y="0.5" width="39" height="39" rx="19.5" stroke="white"/>
<path d="M12.8042 28.0068L11.2 10H28.8373L27.233 27.9971L20.004 30" fill="#E44D26"/>
<path d="M20.0186 28.4685V11.4778H27.2281L25.8523 26.84" fill="#F16529"/>
<path d="M14.4766 13.6802H20.0186V15.8873H16.8976L17.1017 18.1478H20.0186V20.3501H15.0794L14.4766 13.6802ZM15.1766 21.4585H17.3934L17.549 23.2232L20.0186 23.8844V26.1887L15.4877 24.9247" fill="#EBEBEB"/>
<path d="M25.5411 13.6802H20.0088V15.8873H25.3369L25.5411 13.6802ZM25.1376 18.1478H20.0088V20.3549H22.7312L22.4735 23.2232L20.0088 23.8844V26.179L24.5299 24.9247" fill="white"/>
</svg>
