<svg width="40" height="40" viewBox="0 0 40 40" fill="none" xmlns="http://www.w3.org/2000/svg">
<rect x="0.5" y="0.5" width="39" height="39" rx="19.5" fill="black"/>
<rect x="0.5" y="0.5" width="39" height="39" rx="19.5" stroke="white"/>
<g clip-path="url(#clip0_66_40248)">
<path fill-rule="evenodd" clip-rule="evenodd" d="M17.1842 9.49988C16.0256 9.50073 15.088 10.4409 15.0889 11.5994C15.088 12.758 16.0265 13.6982 17.185 13.699H19.2812V11.6003C19.282 10.4418 18.3435 9.50159 17.1842 9.49988C17.185 9.49988 17.185 9.49988 17.1842 9.49988ZM17.1842 15.0999H11.5961C10.4376 15.1007 9.49915 16.0409 9.5 17.1994C9.49829 18.358 10.4368 19.2982 11.5953 19.2999H17.1842C18.3427 19.299 19.2812 18.3588 19.2803 17.2003C19.2812 16.0409 18.3427 15.1007 17.1842 15.0999Z" fill="#36C5F0"/>
<path fill-rule="evenodd" clip-rule="evenodd" d="M30.458 17.1994C30.4589 16.0409 29.5204 15.1007 28.3619 15.0999C27.2034 15.1007 26.2649 16.0409 26.2657 17.1994V19.2999H28.3619C29.5204 19.299 30.4589 18.3588 30.458 17.1994ZM24.8692 17.1994V11.5994C24.87 10.4418 23.9324 9.50159 22.7739 9.49988C21.6154 9.50073 20.6769 10.4409 20.6777 11.5994V17.1994C20.676 18.358 21.6145 19.2982 22.773 19.2999C23.9316 19.299 24.87 18.3588 24.8692 17.1994Z" fill="#2EB67D"/>
<path fill-rule="evenodd" clip-rule="evenodd" d="M22.7731 30.4998C23.9317 30.499 24.8701 29.5588 24.8693 28.4003C24.8701 27.2417 23.9317 26.3015 22.7731 26.3007H20.677V28.4003C20.6761 29.5579 21.6146 30.4981 22.7731 30.4998ZM22.7731 24.899H28.362C29.5205 24.8981 30.459 23.9579 30.4582 22.7994C30.4599 21.6409 29.5214 20.7007 28.3629 20.699H22.774C21.6155 20.6998 20.677 21.64 20.6779 22.7985C20.677 23.9579 21.6146 24.8981 22.7731 24.899Z" fill="#ECB22E"/>
<path fill-rule="evenodd" clip-rule="evenodd" d="M9.5 22.7994C9.49914 23.9579 10.4376 24.8981 11.5961 24.899C12.7547 24.8981 13.6931 23.9579 13.6923 22.7994V20.6998H11.5961C10.4376 20.7007 9.49914 21.6409 9.5 22.7994ZM15.0889 22.7994V28.3994C15.0872 29.5579 16.0256 30.4981 17.1842 30.4998C18.3427 30.499 19.2812 29.5588 19.2803 28.4003V22.8011C19.282 21.6426 18.3435 20.7024 17.185 20.7007C16.0256 20.7007 15.088 21.6409 15.0889 22.7994Z" fill="#E01E5A"/>
</g>
<defs>
<clipPath id="clip0_66_40248">
<rect width="21" height="21" fill="white" transform="translate(9.5 9.5)"/>
</clipPath>
</defs>
</svg>
