<svg width="40" height="40" viewBox="0 0 40 40" fill="none" xmlns="http://www.w3.org/2000/svg">
<rect x="0.5" y="0.5" width="39" height="39" rx="19.5" fill="black"/>
<rect x="0.5" y="0.5" width="39" height="39" rx="19.5" stroke="white"/>
<g clip-path="url(#clip0_66_40299)">
<path d="M10.1903 17.0993C10.1903 17.0993 9.70316 16.7481 10.2877 16.2793L11.6496 15.0615C11.6496 15.0615 12.0393 14.6515 12.4514 15.0087L25.0192 24.5239V29.0866C25.0192 29.0866 25.0131 29.8031 24.0936 29.7239L10.1903 17.0993Z" fill="#2489CA"/>
<path d="M13.4296 20.0408L10.1902 22.9858C10.1902 22.9858 9.85731 23.2335 10.1902 23.6759L11.6942 25.0439C11.6942 25.0439 12.0514 25.4276 12.5791 24.9912L16.0134 22.3871L13.4296 20.0408Z" fill="#1070B3"/>
<path d="M19.1168 20.0646L25.0577 15.5283L25.0192 10.9899C25.0192 10.9899 24.7655 9.99937 23.9191 10.5149L16.0134 17.7102L19.1168 20.0646Z" fill="#0877B9"/>
<path d="M24.0935 29.7302C24.4385 30.0833 24.8567 29.9677 24.8567 29.9677L29.4864 27.6863C30.079 27.2824 29.9958 26.781 29.9958 26.781V13.1577C29.9958 12.559 29.3829 12.352 29.3829 12.352L25.3702 10.4177C24.4933 9.87574 23.9189 10.5151 23.9189 10.5151C23.9189 10.5151 24.6578 9.98331 25.019 10.99V29.0036C25.019 29.1274 24.9926 29.2491 24.9399 29.3587C24.8343 29.5719 24.605 29.7708 24.0549 29.6876L24.0935 29.7302Z" fill="#3C99D4"/>
</g>
<defs>
<clipPath id="clip0_66_40299">
<rect width="20" height="20" fill="white" transform="translate(10 10)"/>
</clipPath>
</defs>
</svg>
