<svg width="40" height="40" viewBox="0 0 40 40" fill="none" xmlns="http://www.w3.org/2000/svg">
<rect x="0.5" y="0.5" width="39" height="39" rx="19.5" fill="#001E36"/>
<rect x="0.5" y="0.5" width="39" height="39" rx="19.5" stroke="white"/>
<path d="M14.0439 12C13.5995 12 13.155 12 12.6959 12.015C12.2364 12.0297 11.8067 12.0297 11.4067 12.0447C11.0067 12.0594 10.6364 12.0594 10.2809 12.0742C9.94005 12.0889 9.7031 12.0889 9.45116 12.0889C9.34755 12.0889 9.3031 12.1481 9.3031 12.2519V27.4964C9.3031 27.6297 9.36227 27.6892 9.48088 27.6892H12.355C12.4587 27.6742 12.5328 27.5853 12.5178 27.4817V22.7261C12.7992 22.7261 13.0067 22.7261 13.155 22.7408C13.3031 22.7556 13.54 22.7556 13.8956 22.7556C15.1106 22.7556 16.2217 22.6222 17.2289 22.2519C18.192 21.8964 19.0217 21.2742 19.6142 20.4444C20.2068 19.6148 20.5031 18.563 20.5031 17.2889C20.5031 16.6222 20.3848 15.9853 20.1625 15.3631C19.9271 14.7291 19.5582 14.1532 19.0809 13.6742C18.5175 13.1268 17.8393 12.7118 17.0956 12.4592C16.2659 12.1481 15.2587 12 14.0439 12ZM14.3745 14.9181C14.9023 14.9281 15.4162 15.0203 15.8956 15.2147C16.3253 15.3778 16.6809 15.6742 16.9328 16.0592C17.1691 16.4576 17.2873 16.915 17.2737 17.3781C17.2737 18.0297 17.1253 18.5336 16.8142 18.9039C16.4881 19.2742 16.0734 19.5558 15.5995 19.6892C15.0512 19.8669 14.4734 19.9556 13.8956 19.9556H13.1103C12.9325 19.9556 12.7403 19.9408 12.5328 19.9261V14.9483C12.6364 14.9333 12.8439 14.9186 13.1403 14.9336C13.4217 14.9186 13.7623 14.9186 14.1475 14.9186C14.2235 14.9168 14.2991 14.9166 14.3745 14.9181ZM26.7995 15.6744C25.7475 15.6744 24.8734 15.8372 24.1773 16.1928C23.5403 16.4892 22.992 16.9631 22.6217 17.5556C22.2959 18.1039 22.1178 18.7111 22.1178 19.3483C22.1052 19.8724 22.2222 20.3915 22.4587 20.8594C22.7357 21.3577 23.1204 21.7878 23.5848 22.1186C24.2365 22.5644 24.9437 22.923 25.6884 23.1853C26.4142 23.4667 26.9031 23.6889 27.1403 23.8814C27.3773 24.0742 27.4959 24.2667 27.4959 24.4742C27.4959 24.7408 27.3328 24.9928 27.0959 25.0964C26.8292 25.2297 26.4292 25.3039 25.8662 25.3039C25.2737 25.3039 24.6809 25.2297 24.1178 25.0817C23.4713 24.9373 22.8515 24.6924 22.2809 24.3558C22.2364 24.3261 22.192 24.3114 22.1475 24.3411C22.1031 24.3706 22.0884 24.4297 22.0884 24.4742V27.0519C22.0737 27.1706 22.1475 27.2742 22.2514 27.3333C22.7319 27.5578 23.24 27.7172 23.7625 27.8075C24.4292 27.9408 25.0956 28 25.777 28C26.8437 28 27.7328 27.8372 28.4587 27.5261C29.1253 27.2594 29.7031 26.8003 30.1178 26.2075C30.5062 25.6248 30.7078 24.9374 30.6956 24.2372C30.7102 23.7083 30.5932 23.1839 30.355 22.7114C30.0734 22.2075 29.6734 21.7928 29.1845 21.4817C28.4693 21.0325 27.7035 20.6695 26.9031 20.4C26.5457 20.2521 26.1947 20.0889 25.8512 19.9111C25.6587 19.8075 25.4809 19.6742 25.3475 19.5111C25.2587 19.3925 25.1995 19.2594 25.1995 19.1261C25.1995 18.9928 25.2439 18.8447 25.3178 18.7261C25.4217 18.5781 25.5845 18.4742 25.777 18.4297C26.0587 18.3558 26.3698 18.3111 26.6659 18.3258C27.2289 18.3258 27.777 18.4 28.3253 18.5186C28.8292 18.6222 29.3031 18.7853 29.7475 19.0225C29.8067 19.0519 29.8809 19.0519 30.0142 19.0225C30.0374 19.0053 30.0561 18.983 30.069 18.9572C30.0819 18.9314 30.0885 18.903 30.0884 18.8742V16.4594C30.0884 16.4 30.0734 16.3408 30.0587 16.2817C30.0289 16.2225 29.9698 16.1631 29.9106 16.1483C29.502 15.9813 29.0739 15.8668 28.6364 15.8075C28.0281 15.7189 27.4142 15.6746 26.7995 15.6744Z" fill="#31A8FF"/>
</svg>
