<svg width="40" height="40" viewBox="0 0 40 40" fill="none" xmlns="http://www.w3.org/2000/svg">
<rect x="0.5" y="0.5" width="39" height="39" rx="19.5" fill="black"/>
<rect x="0.5" y="0.5" width="39" height="39" rx="19.5" stroke="white"/>
<path d="M10.2498 19.6357C10.2498 16.2286 12.0968 13.0815 15.0939 11.3774C16.5709 10.5402 18.2397 10.1001 19.9375 10.1001C21.6353 10.1001 23.3042 10.5402 24.7812 11.3774C27.7783 13.0815 29.6253 16.2286 29.6253 19.6357C29.6253 24.9018 25.2882 29.1709 19.938 29.1709C14.5879 29.1709 10.2498 24.9008 10.2498 19.6357Z" fill="#FF9D0B"/>
<path d="M19.9379 28.1872C24.735 28.1872 28.6251 24.3581 28.6251 19.6359C28.6251 14.9138 24.735 11.0857 19.9379 11.0857C15.1397 11.0857 11.2496 14.9138 11.2496 19.6359C11.2496 24.3581 15.1397 28.1862 19.9379 28.1862V28.1872Z" fill="#FFD21E"/>
<path d="M19.875 23.2141C22.3321 23.2141 23.1251 21.058 23.1251 19.951C23.1251 19.375 22.7321 19.557 22.1021 19.862C21.5201 20.145 20.737 20.537 19.878 20.537C18.08 20.537 16.6279 18.844 16.6279 19.951C16.6279 21.058 17.418 23.2141 19.878 23.2141H19.875Z" fill="#FF323D"/>
<path d="M22.7601 17.3108C23.0801 17.4188 23.2051 18.0638 23.5271 17.8958C23.9742 17.6628 24.2342 17.1878 24.1862 16.6917C24.1613 16.4479 24.0644 16.217 23.9078 16.0284C23.7513 15.8398 23.5422 15.7021 23.3071 15.6327C23.0712 15.5613 22.8195 15.5606 22.5831 15.6306C22.3468 15.7006 22.1361 15.8383 21.9771 16.0267C21.6551 16.4107 21.6001 16.9467 21.8371 17.3868C21.9901 17.6698 22.4751 17.2098 22.7621 17.3078L22.7601 17.3108ZM16.8729 17.3108C16.5529 17.4188 16.4249 18.0638 16.1049 17.8958C15.8877 17.7836 15.709 17.609 15.5917 17.3944C15.4745 17.1799 15.424 16.9352 15.4469 16.6917C15.4949 16.1967 15.8419 15.7787 16.3249 15.6327C16.5609 15.5613 16.8126 15.5606 17.0489 15.6306C17.2853 15.7006 17.496 15.8383 17.655 16.0267C17.977 16.4107 18.032 16.9467 17.795 17.3868C17.643 17.6698 17.155 17.2098 16.8699 17.3078L16.8729 17.3108ZM17.993 22.6509C18.1262 22.3856 18.3126 22.1505 18.5406 21.9602C18.7685 21.7699 19.0331 21.6286 19.318 21.5449C19.388 21.5249 19.462 21.6049 19.537 21.7159L19.729 22.0219C19.798 22.1219 19.868 22.1969 19.938 22.1969C20.012 22.1969 20.088 22.1229 20.161 22.0249L20.366 21.7229C20.4461 21.6129 20.5231 21.5349 20.6001 21.5579C21.1371 21.7259 21.5861 22.0939 21.8501 22.5839C22.7821 21.8599 23.1251 20.6789 23.1251 19.9508C23.1251 19.4428 22.8191 19.5248 22.3151 19.7608L21.6991 20.0568C21.1791 20.2968 20.5511 20.5369 19.875 20.5369C19.199 20.5369 18.573 20.2968 18.052 20.0568L17.463 19.7738C16.943 19.5258 16.6249 19.4318 16.6249 19.9508C16.6249 20.6539 16.945 21.7819 17.812 22.5109L17.992 22.6509H17.993Z" fill="#3A3B45"/>
<path d="M25.8122 18.467C25.9181 18.4679 26.0232 18.448 26.1214 18.4083C26.2196 18.3685 26.309 18.3098 26.3845 18.2355C26.46 18.1612 26.5202 18.0728 26.5615 17.9752C26.6027 17.8777 26.6244 17.7729 26.6252 17.667C26.6252 17.226 26.2612 16.867 25.8122 16.867C25.7063 16.8662 25.6013 16.8862 25.5033 16.926C25.4052 16.9658 25.3159 17.0245 25.2405 17.0988C25.1651 17.1731 25.105 17.2615 25.0638 17.359C25.0226 17.4565 25.0009 17.5611 25.0001 17.667C25.0001 18.109 25.3642 18.467 25.8122 18.467ZM14.1878 18.467C14.2937 18.4678 14.3987 18.4477 14.4967 18.408C14.5948 18.3682 14.6841 18.3095 14.7595 18.2352C14.8349 18.1609 14.895 18.0725 14.9362 17.975C14.9774 17.8775 14.9991 17.7728 14.9999 17.667C14.9999 17.226 14.6358 16.867 14.1878 16.867C14.0819 16.8661 13.9768 16.886 13.8786 16.9257C13.7804 16.9655 13.691 17.0241 13.6155 17.0984C13.54 17.1728 13.4798 17.2612 13.4385 17.3588C13.3973 17.4563 13.3756 17.5611 13.3748 17.667C13.3748 18.109 13.7388 18.467 14.1878 18.467ZM12.5148 21.1741C12.1098 21.1741 11.7498 21.3361 11.4978 21.6341C11.2828 21.8945 11.1651 22.2215 11.1647 22.5591C11.0072 22.5125 10.844 22.4876 10.6797 22.4851C10.2927 22.4851 9.94271 22.6311 9.6947 22.8941C9.47436 23.1179 9.33502 23.4089 9.29879 23.7208C9.26256 24.0328 9.3315 24.3479 9.4947 24.6162C9.27436 24.7929 9.11747 25.0365 9.04768 25.3102C8.98768 25.5322 8.92768 26.0002 9.24769 26.4762C9.12762 26.6571 9.05601 26.8657 9.03972 27.0821C9.02344 27.2986 9.06302 27.5155 9.15469 27.7123C9.39269 28.2453 9.96471 28.6703 11.0447 29.1173L11.2847 29.2133C12.0528 29.5133 12.7578 29.7053 12.7628 29.7073C13.6528 29.9504 14.5708 30.0824 15.4949 30.1014C16.9599 30.1014 18.0079 29.6583 18.61 28.7873C19.54 27.4453 19.452 26.2122 18.336 25.0242L18.1849 24.8702C17.4929 24.1862 17.0299 23.1802 16.9349 22.9581C16.7399 22.3031 16.2249 21.5751 15.3729 21.5751C14.9129 21.5821 14.4838 21.8081 14.2228 22.1801C13.9728 21.8701 13.7278 21.6271 13.5078 21.4861C13.213 21.2902 12.8687 21.182 12.5148 21.1741ZM27.4852 21.1741C27.8902 21.1741 28.2522 21.3361 28.5022 21.6341C28.7183 21.8961 28.8353 22.2221 28.8353 22.5591C28.9933 22.5121 29.1573 22.4881 29.3223 22.4851C29.7103 22.4851 30.0603 22.6311 30.3073 22.8941C30.5276 23.1179 30.667 23.4089 30.7032 23.7208C30.7394 24.0328 30.6705 24.3479 30.5073 24.6162C30.7273 24.7942 30.8843 25.0382 30.9523 25.3102C31.0123 25.5322 31.0723 26.0002 30.7523 26.4762C30.9963 26.8463 31.0313 27.3123 30.8453 27.7123C30.6073 28.2453 30.0353 28.6703 28.9563 29.1173L28.7172 29.2133C27.9472 29.5133 27.2422 29.7053 27.2372 29.7073C26.3472 29.9504 25.4292 30.0824 24.5051 30.1014C23.0401 30.1014 21.9921 29.6583 21.39 28.7873C20.46 27.4453 20.548 26.2122 21.664 25.0242L21.8151 24.8702C22.5101 24.1862 22.9721 23.1802 23.0671 22.9581C23.2621 22.3031 23.7751 21.5751 24.6271 21.5751C25.0871 21.5821 25.5162 21.8081 25.7772 22.1801C26.0272 21.8701 26.2722 21.6271 26.4952 21.4861C26.7392 21.3241 27.0182 21.2211 27.3092 21.1861L27.4852 21.1741Z" fill="#FF9D0B"/>
<path d="M17.785 28.2327C18.473 27.2387 18.423 26.4927 17.48 25.5657C16.535 24.6376 15.985 23.2776 15.985 23.2776C15.985 23.2776 15.7799 22.4896 15.3129 22.5636C14.8449 22.6376 14.5029 23.8136 15.4829 24.5346C16.46 25.2556 15.2879 25.7447 14.9099 25.0686C14.5349 24.3916 13.5049 22.6526 12.9699 22.3176C12.4379 21.9856 12.0628 22.1696 12.1878 22.8586C12.3128 23.5456 14.5449 25.2086 14.3279 25.5657C14.1099 25.9277 13.3449 25.1456 13.3449 25.1456C13.3449 25.1456 10.9528 23.0006 10.4298 23.5606C9.90978 24.1186 10.8278 24.5866 12.1298 25.3637C13.4379 26.1417 13.5399 26.3487 13.3549 26.6437C13.1679 26.9387 10.2848 24.5436 10.0148 25.5607C9.74477 26.5717 12.9579 26.8647 12.7599 27.5667C12.5599 28.2667 10.4948 26.2427 10.0748 27.0297C9.64977 27.8197 12.9879 28.7477 13.0149 28.7547C14.0899 29.0308 16.828 29.6138 17.785 28.2327ZM22.2171 28.2327C21.5301 27.2387 21.5771 26.4927 22.5221 25.5657C23.4652 24.6376 24.0152 23.2776 24.0152 23.2776C24.0152 23.2776 24.2202 22.4896 24.6902 22.5636C25.1552 22.6376 25.4972 23.8136 24.5202 24.5346C23.5402 25.2556 24.7152 25.7447 25.0902 25.0686C25.4672 24.3916 26.4973 22.6526 27.0303 22.3176C27.5623 21.9856 27.9403 22.1696 27.8123 22.8586C27.6873 23.5456 25.4572 25.2086 25.6752 25.5657C25.8902 25.9277 26.6553 25.1456 26.6553 25.1456C26.6553 25.1456 29.0503 23.0006 29.5703 23.5606C30.0904 24.1186 29.1753 24.5866 27.8703 25.3637C26.5623 26.1417 26.4623 26.3487 26.6453 26.6437C26.8323 26.9387 29.7153 24.5436 29.9854 25.5607C30.2554 26.5717 27.0453 26.8647 27.2423 27.5667C27.4423 28.2667 29.5053 26.2427 29.9274 27.0297C30.3504 27.8197 27.0153 28.7477 26.9873 28.7547C25.9102 29.0308 23.1722 29.6138 22.2171 28.2327Z" fill="#FFD21E"/>
</svg>
