<svg width="40" height="40" viewBox="0 0 40 40" fill="none" xmlns="http://www.w3.org/2000/svg">
<rect x="0.5" y="0.5" width="39" height="39" rx="19.5" fill="black"/>
<rect x="0.5" y="0.5" width="39" height="39" rx="19.5" stroke="white"/>
<g clip-path="url(#clip0_30_376191)">
<path d="M20 10.2C14.4779 10.2 10 14.677 10 20.2C10 24.6183 12.8653 28.3668 16.8387 29.6891C17.3384 29.7816 17.5219 29.4721 17.5219 29.208C17.5219 28.9696 17.5126 28.1817 17.5084 27.3462C14.7263 27.9511 14.1392 26.1663 14.1392 26.1663C13.6843 25.0104 13.0289 24.7031 13.0289 24.7031C12.1217 24.0824 13.0973 24.0951 13.0973 24.0951C14.1015 24.1657 14.6303 25.1257 14.6303 25.1257C15.5222 26.6545 16.9696 26.2125 17.5403 25.957C17.63 25.3106 17.8892 24.8695 18.1752 24.6198C15.9541 24.3669 13.6191 23.5094 13.6191 19.6777C13.6191 18.586 14.0097 17.6939 14.6495 16.9936C14.5456 16.7417 14.2034 15.7246 14.7463 14.3472C14.7463 14.3472 15.5861 14.0784 17.4971 15.3722C18.2947 15.1506 19.1502 15.0395 20 15.0358C20.8499 15.0395 21.706 15.1506 22.5052 15.3722C24.4139 14.0784 25.2525 14.3472 25.2525 14.3472C25.7968 15.7246 25.4544 16.7417 25.3505 16.9936C25.9917 17.6939 26.3797 18.5859 26.3797 19.6777C26.3797 23.5185 24.0403 24.3643 21.8135 24.6118C22.1722 24.9222 22.4918 25.5308 22.4918 26.4637C22.4918 27.8017 22.4802 28.8786 22.4802 29.208C22.4802 29.4741 22.6602 29.7859 23.1671 29.6877C27.1383 28.3639 30 24.6169 30 20.2C30 14.677 25.5227 10.2 20 10.2Z" fill="white"/>
<path d="M13.7454 24.445C13.7234 24.4946 13.6451 24.5095 13.574 24.4755C13.5015 24.4428 13.4607 24.3751 13.4842 24.3252C13.5058 24.2741 13.584 24.2598 13.6564 24.2941C13.7291 24.3267 13.7706 24.3951 13.7454 24.445ZM14.2373 24.8839C14.1896 24.9281 14.0963 24.9075 14.0331 24.8377C13.9676 24.7679 13.9554 24.6748 14.0038 24.6298C14.053 24.5857 14.1434 24.6063 14.209 24.6761C14.2744 24.7466 14.2871 24.8392 14.2372 24.8839L14.2373 24.8839ZM14.5748 25.4454C14.5134 25.488 14.4132 25.4481 14.3513 25.3591C14.2901 25.2703 14.2901 25.1636 14.3527 25.1209C14.4148 25.0781 14.5134 25.1165 14.5762 25.2048C14.6373 25.2952 14.6373 25.4019 14.5747 25.4455L14.5748 25.4454ZM15.1454 26.0958C15.0906 26.1562 14.9739 26.14 14.8884 26.0575C14.801 25.9769 14.7766 25.8625 14.8316 25.802C14.8871 25.7415 15.0045 25.7585 15.0906 25.8403C15.1774 25.9208 15.2039 26.036 15.1455 26.0958H15.1454ZM15.883 26.3154C15.8589 26.3937 15.7464 26.4293 15.6332 26.396C15.5201 26.3618 15.446 26.27 15.4688 26.1909C15.4924 26.112 15.6053 26.0749 15.7194 26.1106C15.8324 26.1447 15.9066 26.2357 15.883 26.3154H15.883ZM16.7225 26.4085C16.7253 26.491 16.6292 26.5594 16.5103 26.5609C16.3907 26.5635 16.294 26.4967 16.2927 26.4156C16.2927 26.3323 16.3866 26.2646 16.5061 26.2626C16.625 26.2603 16.7225 26.3265 16.7225 26.4085ZM17.5471 26.3769C17.5613 26.4574 17.4787 26.54 17.3606 26.562C17.2446 26.5832 17.1371 26.5335 17.1223 26.4538C17.1079 26.3712 17.1921 26.2887 17.3079 26.2673C17.4262 26.2467 17.532 26.2951 17.5471 26.3769Z" fill="white"/>
</g>
<defs>
<clipPath id="clip0_30_376191">
<rect width="20" height="20" fill="white" transform="translate(10 10)"/>
</clipPath>
</defs>
</svg>
