<svg width="40" height="40" viewBox="0 0 40 40" fill="none" xmlns="http://www.w3.org/2000/svg">
<rect x="0.5" y="0.5" width="39" height="39" rx="19.5" fill="black"/>
<rect x="0.5" y="0.5" width="39" height="39" rx="19.5" stroke="white"/>
<path fill-rule="evenodd" clip-rule="evenodd" d="M30 17C30 18.1042 29.0817 19 27.9483 19C26.9933 19 26.19 18.3625 25.9617 17.5H23.0983C22.5967 17.5 22.1692 17.8533 22.0867 18.3358L22.0025 18.8292C21.9237 19.2853 21.6879 19.6995 21.3358 20C21.6792 20.295 21.9225 20.7033 22.0025 21.1708L22.0858 21.6642C22.1289 21.9007 22.2543 22.1143 22.4397 22.2673C22.6252 22.4203 22.8588 22.5027 23.0992 22.5H23.9117C24.1392 21.6375 24.9425 21 25.8983 21C27.0317 21 27.9492 21.8958 27.9492 23C27.9492 24.1042 27.03 25 25.8983 25C24.9425 25 24.14 24.3625 23.9117 23.5H23.0992C22.0958 23.5 21.2408 22.7933 21.0758 21.8292L20.9917 21.3358C20.9486 21.0996 20.8235 20.8862 20.6384 20.7332C20.4533 20.5803 20.2201 20.4977 19.98 20.5H19.1417C18.885 21.32 18.1033 21.9167 17.1783 21.9167C16.2533 21.9167 15.4717 21.32 15.2158 20.5H14.0142C13.7575 21.32 12.9758 21.9167 12.0517 21.9167C10.9183 21.9167 10 21.0208 10 19.9167C10 18.8125 10.9183 17.9167 12.0517 17.9167C13.0375 17.9167 13.8617 18.5958 14.0583 19.5H15.1725C15.3692 18.5958 16.1933 17.9167 17.1792 17.9167C18.1658 17.9167 18.9892 18.5958 19.1858 19.5H19.9792C20.48 19.5 20.9083 19.1467 20.99 18.6642L21.075 18.1708C21.24 17.2067 22.0958 16.5 23.0983 16.5H25.9617C26.19 15.6375 26.9933 15 27.9483 15C29.0817 15 30 15.8958 30 17ZM28.975 17C28.975 17.5525 28.515 18 27.9483 18C27.3817 18 26.9233 17.5525 26.9233 17C26.9233 16.4475 27.3817 16 27.9483 16C28.515 16 28.9742 16.4475 28.9742 17H28.975ZM12.0508 20.9167C12.6175 20.9167 13.0758 20.4692 13.0758 19.9167C13.0758 19.3642 12.6175 18.9167 12.0508 18.9167C11.4842 18.9167 11.025 19.3642 11.025 19.9167C11.025 20.4692 11.4842 20.9167 12.0508 20.9167ZM17.1783 20.9167C17.745 20.9167 18.2042 20.4692 18.2042 19.9167C18.2042 19.3642 17.7458 18.9167 17.1792 18.9167C16.6125 18.9167 16.1533 19.3642 16.1533 19.9167C16.1533 20.4692 16.6117 20.9167 17.1783 20.9167ZM25.8967 24C26.4633 24 26.9217 23.5525 26.9217 23C26.9217 22.4475 26.4633 22 25.8967 22C25.33 22 24.8717 22.4475 24.8717 23C24.8717 23.5525 25.33 24 25.8967 24Z" fill="#EA4B71"/>
</svg>
