<svg width="40" height="40" viewBox="0 0 40 40" fill="none" xmlns="http://www.w3.org/2000/svg">
<rect x="0.5" y="0.5" width="39" height="39" rx="19.5" fill="black"/>
<rect x="0.5" y="0.5" width="39" height="39" rx="19.5" stroke="white"/>
<path d="M30.0701 17.6121L30.8383 18.051V18.3802L30.6188 19.1484L21.2909 21.3432L20.4138 19.164L30.0701 17.6121Z" fill="#D97757"/>
<path d="M26.5811 11.157L27.6551 11.3823L27.9402 11.7337L28.2121 12.5756L28.0994 13.1126L21.8396 21.6722L19.7545 19.5872L25.527 12.0123L26.5811 11.157Z" fill="#D97757"/>
<path d="M21.1812 9.82031L21.8397 9.38135L22.3883 9.60083L22.937 10.369L21.4338 19.4033L20.4131 18.7093L19.9741 17.5021L20.7423 10.6982L21.1812 9.82031Z" fill="#D97757"/>
<path d="M14.1414 9.96475L14.8178 9.10063L15.259 9L16.1345 9.12787L16.5665 9.46609L19.715 16.4463L20.8539 19.7628L19.5214 20.5036L14.4433 11.2882L14.1414 9.96475Z" fill="#D97757"/>
<path d="M10.8653 14.7592L10.646 13.8809L11.3045 13.1127L12.0727 13.2224H12.2922L16.9012 16.6243L18.3278 17.7217L20.3031 19.2581L19.2057 21.1237L18.2181 20.3555L17.5597 19.6971L11.1947 15.1977L10.8653 14.7592Z" fill="#D97757"/>
<path d="M9.54875 20.4648L9.052 19.9161L9.05207 19.428L9.54875 19.2577L15.1454 19.5869L20.6324 20.0259L20.4543 21.1185L9.98765 20.5746L9.54875 20.4648Z" fill="#D97757"/>
<path d="M12.8409 26.1773H11.7436L11.3073 25.6748V25.0741L13.1702 23.7572L20.744 18.936L21.5105 20.2455L12.8409 26.1773Z" fill="#D97757"/>
<path d="M14.926 29.2441L14.4871 29.3539L13.8286 29.0247L13.9384 28.476L20.413 19.9163L21.291 21.1234L16.4624 27.4883L14.926 29.2441Z" fill="#D97757"/>
<path d="M20.4129 30.3415L20.0838 30.7804L19.4253 30.9999L18.8766 30.561L18.5474 29.9025L20.1935 21.0135L21.1811 21.1233L20.4129 30.3415Z" fill="#D97757"/>
<path d="M26.0099 27.9273V28.8052L25.9002 29.1344L25.4611 29.3539L24.693 29.2517L19.4181 21.4009L21.5104 19.8066L23.2661 22.9891L23.431 24.1413L26.0099 27.9273Z" fill="#D97757"/>
<path d="M28.5339 26.6106L28.6436 27.1593L28.3144 27.5982L27.9852 27.4885L26.1196 26.1716L23.2663 23.6476L21.0715 22.1112L21.7298 20.0264L22.8272 20.6848L23.4858 21.8918L28.5339 26.6106Z" fill="#D97757"/>
<path d="M27.1071 21.0139L29.8506 21.2334L30.5091 21.6723L30.948 22.3308V22.8046L29.7409 23.3184L23.5955 21.7821L21.0714 21.6723L21.7298 19.3678L23.4857 20.6847L27.1071 21.0139Z" fill="#D97757"/>
</svg>
