<svg width="40" height="40" viewBox="0 0 40 40" fill="none" xmlns="http://www.w3.org/2000/svg">
<rect x="0.5" y="0.5" width="39" height="39" rx="19.5" fill="#470137"/>
<rect x="0.5" y="0.5" width="39" height="39" rx="19.5" stroke="white"/>
<path d="M20.9137 12.9418L16.4695 20.2748L21.21 28.0521C21.2396 28.1114 21.2544 28.1707 21.2396 28.2299C21.2248 28.2892 21.1655 28.2447 21.0766 28.2595H17.6842C17.4472 28.2595 17.2842 28.2447 17.1805 28.0966C16.8695 27.4744 16.5435 26.867 16.2324 26.2448C15.9214 25.6375 15.5806 25.0153 15.2251 24.3783C14.8696 23.7413 14.514 23.1043 14.1585 22.4524H14.1289C13.8178 23.0894 13.477 23.7264 13.1363 24.3635C12.7956 25.0005 12.4549 25.6375 12.129 26.2596C11.7882 26.8818 11.4475 27.5188 11.1068 28.1262C11.0475 28.2744 10.929 28.2892 10.7661 28.2892H7.50697C7.44771 28.2892 7.40327 28.3188 7.40327 28.2447C7.38846 28.1855 7.40327 28.1262 7.4329 28.0818L12.0401 20.5266L7.55141 12.927C7.50697 12.8677 7.49216 12.8085 7.52178 12.7789C7.55141 12.7344 7.61067 12.7196 7.66993 12.7196H11.0327C11.1068 12.7196 11.1809 12.7344 11.2401 12.7492C11.2994 12.7789 11.3438 12.8233 11.3883 12.8826C11.6697 13.5196 11.9956 14.1566 12.3364 14.7936C12.6919 15.4306 13.0326 16.0528 13.403 16.675C13.7585 17.2971 14.0844 17.9193 14.3955 18.5563H14.4251C14.7362 17.9045 15.0621 17.2675 15.388 16.6453C15.714 16.0231 16.0547 15.4009 16.3954 14.7788C16.7361 14.1566 17.062 13.5196 17.3879 12.9122C17.4028 12.8529 17.4324 12.7937 17.4768 12.764C17.5361 12.7344 17.5953 12.7196 17.6694 12.7344H20.7952C20.8692 12.7196 20.9433 12.764 20.9581 12.8381C20.9729 12.8529 20.9433 12.9122 20.9137 12.9418Z" fill="#FF61F6"/>
<path d="M27.7583 28.5706C26.662 28.5854 25.5658 28.3632 24.5732 27.904C23.64 27.4744 22.8696 26.7633 22.3363 25.8893C21.7882 24.9856 21.5216 23.8598 21.5216 22.5117C21.5067 21.4154 21.7882 20.334 22.3363 19.3859C22.8993 18.423 23.714 17.623 24.6918 17.0897C25.7287 16.512 26.9731 16.2305 28.4397 16.2305C28.5138 16.2305 28.6175 16.2305 28.7508 16.2453C28.8841 16.2602 29.0323 16.2602 29.21 16.275V11.5937C29.21 11.49 29.2545 11.4308 29.3582 11.4308H32.3654C32.4395 11.416 32.4988 11.4752 32.5136 11.5345C32.5136 11.5493 32.5136 11.5641 32.5136 11.5641V25.6671C32.5136 25.9337 32.5284 26.23 32.5432 26.5559C32.5728 26.867 32.5877 27.1633 32.6025 27.4151C32.6025 27.5188 32.558 27.6077 32.4543 27.6522C31.684 27.9781 30.8692 28.2151 30.0396 28.3632C29.2841 28.4966 28.5286 28.5706 27.7583 28.5706ZM29.21 25.6078V19.0896C29.0767 19.06 28.9434 19.0304 28.8101 19.0156C28.6471 19.0008 28.4842 18.9859 28.3212 18.9859C27.7435 18.9859 27.1657 19.1044 26.6472 19.3711C26.1435 19.6229 25.7139 19.9933 25.388 20.4673C25.0621 20.9414 24.8992 21.5784 24.8992 22.3487C24.8843 22.8672 24.9732 23.3857 25.151 23.8746C25.2991 24.2746 25.5213 24.6301 25.8176 24.9264C26.0991 25.193 26.4398 25.4004 26.825 25.5189C27.225 25.6523 27.6398 25.7115 28.0545 25.7115C28.2768 25.7115 28.4842 25.6967 28.6767 25.6819C28.8693 25.6967 29.0323 25.6671 29.21 25.6078Z" fill="#FF61F6"/>
</svg>
