<svg width="40" height="40" viewBox="0 0 40 40" fill="none" xmlns="http://www.w3.org/2000/svg">
<rect x="0.5" y="0.5" width="39" height="39" rx="19.5" fill="black"/>
<rect x="0.5" y="0.5" width="39" height="39" rx="19.5" stroke="white"/>
<g clip-path="url(#clip0_66_40189)">
<path d="M16.4293 30.7139C18.4008 30.7139 20.0008 29.1139 20.0008 27.1425V23.571H16.4293C14.4579 23.571 12.8579 25.171 12.8579 27.1425C12.8579 29.1139 14.4579 30.7139 16.4293 30.7139Z" fill="#0ACF83"/>
<path d="M12.8579 19.9996C12.8579 18.0282 14.4579 16.4282 16.4293 16.4282H20.0008V23.5711H16.4293C14.4579 23.5711 12.8579 21.9711 12.8579 19.9996Z" fill="#A259FF"/>
<path d="M12.8579 12.8569C12.8579 10.8855 14.4579 9.28552 16.4293 9.28552H20.0008V16.4284H16.4293C14.4579 16.4284 12.8579 14.8284 12.8579 12.8569Z" fill="#F24E1E"/>
<path d="M20.0007 9.28552H23.5722C25.5436 9.28552 27.1436 10.8855 27.1436 12.8569C27.1436 14.8284 25.5436 16.4284 23.5722 16.4284H20.0007V9.28552Z" fill="#FF7262"/>
<path d="M27.1436 19.9996C27.1436 21.9711 25.5436 23.5711 23.5722 23.5711C21.6007 23.5711 20.0007 21.9711 20.0007 19.9996C20.0007 18.0282 21.6007 16.4282 23.5722 16.4282C25.5436 16.4282 27.1436 18.0282 27.1436 19.9996Z" fill="#1ABCFE"/>
</g>
<defs>
<clipPath id="clip0_66_40189">
<rect width="21.4286" height="21.4286" fill="white" transform="translate(9.28577 9.28577)"/>
</clipPath>
</defs>
</svg>
