<svg width="40" height="40" viewBox="0 0 40 40" fill="none" xmlns="http://www.w3.org/2000/svg">
<rect x="0.5" y="0.5" width="39" height="39" rx="19.5" fill="black"/>
<rect x="0.5" y="0.5" width="39" height="39" rx="19.5" stroke="white"/>
<path fill-rule="evenodd" clip-rule="evenodd" d="M16.5875 10.9084C16.7675 10.9793 16.93 11.0959 17.0775 11.2501C17.3233 11.5051 17.5308 11.8701 17.6892 12.3026C17.8483 12.7376 17.9517 13.2193 17.9908 13.7026C18.5155 13.4058 19.0978 13.225 19.6983 13.1726L19.7408 13.1693C20.4658 13.1109 21.1825 13.2418 21.8075 13.5643C21.8916 13.6086 21.9742 13.6558 22.055 13.7059C22.0967 13.2318 22.1983 12.7609 22.355 12.3359C22.5133 11.9026 22.7208 11.5384 22.9658 11.2826C23.1027 11.1345 23.2702 11.0179 23.4567 10.9409C23.6708 10.8576 23.8983 10.8426 24.12 10.9059C24.4542 11.0009 24.7408 11.2126 24.9667 11.5201C25.1733 11.801 25.3283 12.1609 25.4342 12.5926C25.6258 13.3709 25.6592 14.3951 25.53 15.6301L25.5742 15.6634L25.5958 15.6793C26.2267 16.1593 26.6658 16.8434 26.8983 17.6376C27.2608 18.8768 27.0783 20.2668 26.4533 21.0443L26.4383 21.0618L26.44 21.0643C26.7875 21.6993 26.9983 22.3701 27.0433 23.0643L27.045 23.0893C27.0983 23.9768 26.8783 24.8701 26.3667 25.7476L26.3608 25.7559L26.3692 25.7759C26.7625 26.7401 26.8858 27.7109 26.7342 28.6809L26.7292 28.7134C26.7057 28.8551 26.6269 28.9817 26.5102 29.0654C26.3936 29.1492 26.2484 29.1832 26.1067 29.1601C26.001 29.1436 25.9025 29.096 25.8239 29.0235C25.7452 28.951 25.6899 28.8567 25.6649 28.7527C25.6483 28.6836 25.6455 28.6119 25.6567 28.5418C25.7958 27.6809 25.665 26.8176 25.2567 25.9393C25.2185 25.8577 25.2016 25.7678 25.2074 25.6779C25.2133 25.588 25.2417 25.5011 25.29 25.4251L25.2933 25.4201C25.7967 24.6501 26.005 23.8951 25.96 23.1534C25.9217 22.5043 25.6892 21.8668 25.2933 21.2593C25.2163 21.1412 25.1889 20.9975 25.2169 20.8593C25.245 20.7212 25.3263 20.5996 25.4433 20.5209L25.4508 20.5159C25.6533 20.3834 25.84 20.0451 25.9342 19.5826C26.0381 19.0357 26.0109 18.472 25.855 17.9376C25.6842 17.3543 25.3717 16.8676 24.9342 16.5351C24.4383 16.1568 23.7817 15.9743 22.9508 16.0268C22.8422 16.0338 22.7339 16.0081 22.64 15.953C22.5461 15.8979 22.4709 15.8159 22.4242 15.7176C22.1625 15.1634 21.7808 14.7668 21.305 14.5209C20.8481 14.2929 20.3367 14.1971 19.8283 14.2443C18.7908 14.3268 17.8758 14.9118 17.6033 15.6493C17.5647 15.7531 17.4954 15.8426 17.4046 15.9059C17.3137 15.9692 17.2057 16.0032 17.095 16.0034C16.2058 16.0051 15.5175 16.2134 15.0142 16.5893C14.5792 16.9143 14.2825 17.3684 14.1258 17.9126C13.984 18.4248 13.9646 18.9632 14.0692 19.4843C14.1625 19.9493 14.345 20.3343 14.5542 20.5418L14.5608 20.5476C14.7375 20.7201 14.775 20.9893 14.6517 21.2018C14.3517 21.7201 14.1275 22.4926 14.0908 23.2351C14.0492 24.0834 14.2458 24.8201 14.69 25.3484L14.7033 25.3643C14.7704 25.4424 14.8135 25.5381 14.8275 25.6401C14.8416 25.7421 14.8259 25.846 14.7825 25.9393C14.3025 26.9693 14.155 27.8159 14.3142 28.4826C14.3425 28.6211 14.3157 28.7652 14.2395 28.8843C14.1633 29.0034 14.0437 29.0881 13.906 29.1204C13.7684 29.1527 13.6236 29.1301 13.5023 29.0574C13.3811 28.9847 13.2929 28.8676 13.2567 28.7309C13.0542 27.8826 13.1917 26.9109 13.6508 25.8159L13.6625 25.7868L13.6558 25.7768C13.4302 25.4434 13.2617 25.0747 13.1575 24.6859L13.1533 24.6701C13.0268 24.185 12.977 23.6831 13.0058 23.1826C13.0425 22.4243 13.2375 21.6476 13.5242 21.0243L13.5342 21.0026L13.5325 21.0009C13.2883 20.6526 13.1075 20.2068 13.0075 19.7134L13.0033 19.6934C12.8655 19.0053 12.8921 18.2944 13.0808 17.6184C13.2992 16.8559 13.7283 16.2009 14.3608 15.7276C14.4108 15.6901 14.4633 15.6526 14.5158 15.6176C14.3833 14.3734 14.4167 13.3426 14.6092 12.5593C14.715 12.1276 14.8708 11.7676 15.0775 11.4868C15.3025 11.1801 15.5892 10.9684 15.9233 10.8726C16.145 10.8093 16.3733 10.8234 16.5875 10.9076V10.9084ZM20.0175 18.4834C20.7975 18.4834 21.5175 18.7443 22.0558 19.1959C22.5808 19.6351 22.8933 20.2251 22.8933 20.8126C22.8933 21.5526 22.555 22.1293 21.9492 22.4976C21.4325 22.8101 20.74 22.9618 19.9467 22.9618C19.1058 22.9618 18.3875 22.7459 17.8692 22.3501C17.355 21.9584 17.0667 21.4084 17.0667 20.8126C17.0667 20.2234 17.3983 19.6318 17.9467 19.1909C18.5033 18.7434 19.2383 18.4834 20.0175 18.4834ZM20.0175 19.2301C19.4393 19.2251 18.8765 19.416 18.4208 19.7718C18.0367 20.0801 17.8192 20.4676 17.8192 20.8134C17.8192 21.1701 17.9942 21.5043 18.3275 21.7584C18.7067 22.0476 19.2642 22.2151 19.9467 22.2151C20.6125 22.2151 21.1742 22.0926 21.5567 21.8601C21.9425 21.6268 22.14 21.2884 22.14 20.8126C22.14 20.4601 21.935 20.0709 21.5708 19.7659C21.1675 19.4284 20.6208 19.2301 20.0175 19.2301ZM20.5692 20.2384L20.5725 20.2418C20.5963 20.2716 20.6139 20.3059 20.6245 20.3426C20.635 20.3793 20.6382 20.4177 20.6338 20.4556C20.6295 20.4935 20.6177 20.5302 20.5992 20.5636C20.5807 20.597 20.5557 20.6264 20.5258 20.6501L20.2825 20.8418V21.2134C20.2821 21.2962 20.2488 21.3753 20.1901 21.4336C20.1314 21.4919 20.0519 21.5245 19.9692 21.5243C19.8864 21.5245 19.807 21.4918 19.7483 21.4336C19.6895 21.3753 19.6563 21.2961 19.6558 21.2134V20.8301L19.43 20.6484C19.4002 20.6245 19.3754 20.595 19.3571 20.5615C19.3388 20.528 19.3273 20.4912 19.3232 20.4533C19.3192 20.4153 19.3227 20.3769 19.3336 20.3403C19.3445 20.3038 19.3625 20.2697 19.3867 20.2401C19.4358 20.1802 19.5067 20.1422 19.5837 20.1342C19.6608 20.1263 19.7379 20.149 19.7983 20.1976L19.9775 20.3409L20.1608 20.1959C20.221 20.1484 20.2973 20.1262 20.3736 20.1342C20.4499 20.1421 20.5201 20.1795 20.5692 20.2384ZM16.3692 18.6393C16.7675 18.6393 17.0917 18.9643 17.0917 19.3651C17.0918 19.5572 17.0158 19.7416 16.8801 19.8777C16.7445 20.0137 16.5604 20.0904 16.3683 20.0909C16.1764 20.0903 15.9927 20.0136 15.8573 19.8777C15.7218 19.7418 15.6458 19.5578 15.6458 19.3659C15.6454 19.1738 15.7212 18.9893 15.8567 18.8531C15.9925 18.7168 16.1768 18.6399 16.3692 18.6393ZM23.6242 18.6393C24.0242 18.6393 24.3475 18.9643 24.3475 19.3651C24.3477 19.5572 24.2717 19.7416 24.136 19.8777C24.0004 20.0138 23.8163 20.0905 23.6242 20.0909C23.4323 20.0903 23.2485 20.0136 23.1131 19.8777C22.9777 19.7418 22.9017 19.5578 22.9017 19.3659C22.9012 19.1738 22.9771 18.9893 23.1125 18.8531C23.248 18.7168 23.432 18.6399 23.6242 18.6393ZM16.2 11.9168L16.1975 11.9184C16.1009 11.9604 16.0185 12.0293 15.96 12.1168L15.9558 12.1218C15.8408 12.2793 15.7408 12.5109 15.6658 12.8151C15.5242 13.3918 15.4858 14.1743 15.5625 15.1334C15.9208 15.0268 16.3117 14.9601 16.7325 14.9359L16.7408 14.9351L16.7567 14.9068C16.7949 14.8386 16.836 14.7722 16.88 14.7076C16.9825 14.0651 16.8983 13.2976 16.6692 12.6709C16.5575 12.3676 16.4217 12.1293 16.2917 11.9934C16.2648 11.9652 16.2349 11.94 16.2025 11.9184L16.2 11.9168ZM23.845 11.9501L23.8433 11.9509C23.8109 11.9725 23.781 11.9977 23.7542 12.0259C23.6242 12.1618 23.4875 12.4009 23.3767 12.7043C23.135 13.3659 23.0542 14.1843 23.185 14.8476L23.2333 14.9284L23.24 14.9401H23.265C23.6786 14.9402 24.09 14.9997 24.4867 15.1168C24.5583 14.1801 24.5183 13.4143 24.38 12.8484C24.305 12.5443 24.205 12.3126 24.0892 12.1551L24.0858 12.1501C24.0274 12.0623 23.945 11.9931 23.8483 11.9509H23.845V11.9501Z" fill="white"/>
</svg>
