<svg width="40" height="40" viewBox="0 0 40 40" fill="none" xmlns="http://www.w3.org/2000/svg">
<rect x="0.5" y="0.5" width="39" height="39" rx="19.5" fill="black"/>
<rect x="0.5" y="0.5" width="39" height="39" rx="19.5" stroke="white"/>
<g clip-path="url(#clip0_30_376051)">
<path d="M15.7474 13.333H15.7274L15.7015 15.5122H15.7199C17.149 15.5122 18.2582 16.643 20.6699 20.7172L20.8157 20.9647L20.8257 20.9813L22.1757 18.9497L22.1657 18.9338C21.8707 18.4509 21.5656 17.9741 21.2507 17.5038C20.9407 17.0398 20.6141 16.587 20.2715 16.1463C18.6774 14.1097 17.344 13.333 15.7474 13.333Z" fill="url(#paint0_linear_30_376051)"/>
<path d="M15.7274 13.333C14.1249 13.3413 12.7058 14.3813 11.6833 15.9747C11.6805 15.9794 11.6777 15.9841 11.6749 15.9888L13.5533 17.0147L13.5624 17.0005C14.1608 16.098 14.9041 15.5222 15.7024 15.513H15.7199L15.7466 13.333H15.7274Z" fill="url(#paint1_linear_30_376051)"/>
<path d="M11.6823 15.9746L11.6732 15.9888C10.9998 17.0388 10.4982 18.3288 10.2282 19.7196L10.224 19.7379L12.3357 20.2379L12.339 20.2196C12.564 18.9971 12.994 17.8629 13.5523 17.0154L13.5615 17.0013L11.6823 15.9746Z" fill="url(#paint2_linear_30_376051)"/>
<path d="M12.3392 20.2197L10.2283 19.7197L10.2242 19.7381C10.0767 20.5031 10.0017 21.2806 10 22.0597V22.0789L12.165 22.2731V22.2539C12.1571 21.572 12.2157 20.891 12.34 20.2206L12.3392 20.2197Z" fill="url(#paint3_linear_30_376051)"/>
<path d="M12.2307 22.947C12.1919 22.7231 12.1699 22.4966 12.1649 22.2695V22.2512L9.99986 22.0562V22.0762C9.99743 22.5378 10.0382 22.9987 10.1215 23.4528L12.234 22.9653C12.2329 22.9592 12.2318 22.9531 12.2307 22.947Z" fill="url(#paint4_linear_30_376051)"/>
<path d="M12.7248 24.0748C12.4882 23.8165 12.3215 23.4449 12.234 22.9682L12.2307 22.9507L10.1182 23.4382L10.1215 23.4557C10.2815 24.2973 10.5948 24.9974 11.0432 25.5282L11.0548 25.5423L12.7365 24.0882C12.7323 24.0838 12.729 24.0793 12.7248 24.0748Z" fill="url(#paint5_linear_30_376051)"/>
<path d="M18.9831 18.0449C17.7098 20.0033 16.9381 21.2324 16.9381 21.2324C15.2423 23.8991 14.6556 24.4966 13.7123 24.4966C13.5267 24.5014 13.3424 24.4661 13.1718 24.393C13.0012 24.32 12.8484 24.2109 12.7239 24.0733L11.0431 25.5266L11.0548 25.5408C11.6748 26.2649 12.5481 26.6666 13.6298 26.6666C15.2656 26.6666 16.4414 25.8933 18.5331 22.2249L20.0048 19.6166C19.6783 19.0835 19.3381 18.5594 18.9831 18.0449Z" fill="#0082FB"/>
<path d="M21.2516 14.9549L21.2383 14.9683C20.9049 15.3266 20.5833 15.7249 20.2716 16.1483C20.5866 16.5508 20.9116 17.0016 21.2508 17.5066C21.6508 16.8874 22.0241 16.3858 22.3899 16.0008L22.4033 15.9874L21.2516 14.9549Z" fill="url(#paint6_linear_30_376051)"/>
<path d="M27.4316 14.7605C26.5441 13.8605 25.4858 13.333 24.3541 13.333C23.1608 13.333 22.1566 13.9888 21.2516 14.953L21.2383 14.9663L22.3899 15.9997L22.4033 15.9855C22.9991 15.363 23.5766 15.0522 24.2166 15.0522C24.9049 15.0522 25.5499 15.3772 26.1083 15.948L26.1208 15.9613L27.4449 14.7738L27.4316 14.7605Z" fill="#0082FB"/>
<path d="M29.9982 21.7705C29.9482 18.8813 28.9398 16.2988 27.4448 14.7738L27.4315 14.7605L26.1082 15.9472L26.1207 15.9605C27.2457 17.1205 28.0182 19.2772 28.0882 21.7697V21.7888H29.9982V21.7705Z" fill="url(#paint7_linear_30_376051)"/>
<path d="M29.9982 21.7914V21.7722H28.0882V21.7906C28.0915 21.9072 28.0932 22.0256 28.0932 22.1439C28.0932 22.8231 27.9923 23.3722 27.7865 23.7689L27.7773 23.7872L29.2007 25.2722L29.2115 25.2555C29.7282 24.4555 29.9998 23.3447 29.9998 21.9972C29.9998 21.9281 29.9998 21.8597 29.9982 21.7914Z" fill="url(#paint8_linear_30_376051)"/>
<path d="M27.7865 23.7661L27.7774 23.7828C27.599 24.1178 27.3449 24.3411 27.0132 24.4386L27.6615 26.4903C27.7865 26.4481 27.9084 26.3974 28.0265 26.3386C28.488 26.1053 28.8804 25.7554 29.1648 25.3236L29.2015 25.2694L29.2115 25.2528L27.7865 23.7661Z" fill="url(#paint9_linear_30_376051)"/>
<path d="M26.5998 24.4939C26.3814 24.4939 26.1898 24.4614 26.0014 24.3772L25.3364 26.4789C25.7106 26.6064 26.1089 26.6639 26.5531 26.6639C26.9631 26.6639 27.3389 26.603 27.6798 26.4847L27.0298 24.433C26.8906 24.4747 26.7464 24.4955 26.5998 24.4939Z" fill="url(#paint10_linear_30_376051)"/>
<path d="M25.269 23.7778L25.2573 23.7637L23.7273 25.3587L23.7406 25.3728C24.2715 25.9412 24.779 26.2937 25.3548 26.487L26.019 24.387C25.7765 24.2828 25.5415 24.0928 25.269 23.7778Z" fill="url(#paint11_linear_30_376051)"/>
<path d="M25.2575 23.7621C24.7991 23.2271 24.2308 22.3355 23.3383 20.8955L22.175 18.9488L22.1658 18.9321L20.8158 20.9638L20.8258 20.9805L21.65 22.3705C22.4491 23.7121 23.1 24.6821 23.7275 25.358L23.7408 25.3713L25.2691 23.7763C25.2652 23.7716 25.2613 23.7669 25.2575 23.7621Z" fill="url(#paint12_linear_30_376051)"/>
</g>
<defs>
<linearGradient id="paint0_linear_30_376051" x1="507.071" y1="695.557" x2="105.601" y2="167.794" gradientUnits="userSpaceOnUse">
<stop offset="0.0006" stop-color="#0867DF"/>
<stop offset="0.4539" stop-color="#0668E1"/>
<stop offset="0.8591" stop-color="#0064E0"/>
</linearGradient>
<linearGradient id="paint1_linear_30_376051" x1="99.9079" y1="292.676" x2="386.365" y2="74.6526" gradientUnits="userSpaceOnUse">
<stop offset="0.1323" stop-color="#0064DF"/>
<stop offset="0.9988" stop-color="#0064E0"/>
</linearGradient>
<linearGradient id="paint2_linear_30_376051" x1="137.927" y1="395.953" x2="254.71" y2="101.083" gradientUnits="userSpaceOnUse">
<stop offset="0.0147" stop-color="#0072EC"/>
<stop offset="0.6881" stop-color="#0064DF"/>
</linearGradient>
<linearGradient id="paint3_linear_30_376051" x1="120.055" y1="250.005" x2="134.301" y2="60.0923" gradientUnits="userSpaceOnUse">
<stop offset="0.0731" stop-color="#007CF6"/>
<stop offset="0.9943" stop-color="#0072EC"/>
</linearGradient>
<linearGradient id="paint4_linear_30_376051" x1="126.528" y1="103.483" x2="122.434" y2="72.9208" gradientUnits="userSpaceOnUse">
<stop offset="0.0731" stop-color="#007FF9"/>
<stop offset="1" stop-color="#007CF6"/>
</linearGradient>
<linearGradient id="paint5_linear_30_376051" x1="108.801" y1="55.3517" x2="171.298" y2="188.339" gradientUnits="userSpaceOnUse">
<stop offset="0.0731" stop-color="#007FF9"/>
<stop offset="1" stop-color="#0082FB"/>
</linearGradient>
<linearGradient id="paint6_linear_30_376051" x1="94.4706" y1="190.717" x2="169.839" y2="86.1716" gradientUnits="userSpaceOnUse">
<stop offset="0.2799" stop-color="#007FF8"/>
<stop offset="0.9141" stop-color="#0082FB"/>
</linearGradient>
<linearGradient id="paint7_linear_30_376051" x1="196.342" y1="58.5822" x2="363.751" y2="676.374" gradientUnits="userSpaceOnUse">
<stop stop-color="#0082FB"/>
<stop offset="0.9995" stop-color="#0081FA"/>
</linearGradient>
<linearGradient id="paint8_linear_30_376051" x1="161.25" y1="38.0857" x2="63.0339" y2="237.215" gradientUnits="userSpaceOnUse">
<stop offset="0.0619" stop-color="#0081FA"/>
<stop offset="1" stop-color="#0080F9"/>
</linearGradient>
<linearGradient id="paint9_linear_30_376051" x1="93.5831" y1="185.364" x2="172.83" y2="131.22" gradientUnits="userSpaceOnUse">
<stop stop-color="#027AF3"/>
<stop offset="1" stop-color="#0080F9"/>
</linearGradient>
<linearGradient id="paint10_linear_30_376051" x1="73.2178" y1="138.713" x2="217.752" y2="138.713" gradientUnits="userSpaceOnUse">
<stop stop-color="#0377EF"/>
<stop offset="0.9994" stop-color="#0279F1"/>
</linearGradient>
<linearGradient id="paint11_linear_30_376051" x1="116.088" y1="119.892" x2="197.465" y2="167.931" gradientUnits="userSpaceOnUse">
<stop offset="0.0019" stop-color="#0471E9"/>
<stop offset="1" stop-color="#0377EF"/>
</linearGradient>
<linearGradient id="paint12_linear_30_376051" x1="164.454" y1="145.906" x2="430.266" y2="481.135" gradientUnits="userSpaceOnUse">
<stop offset="0.2765" stop-color="#0867DF"/>
<stop offset="1" stop-color="#0471E9"/>
</linearGradient>
<clipPath id="clip0_30_376051">
<rect width="20" height="20" fill="white" transform="translate(10 10)"/>
</clipPath>
</defs>
</svg>
