<svg width="40" height="40" viewBox="0 0 40 40" fill="none" xmlns="http://www.w3.org/2000/svg">
<rect x="0.5" y="0.5" width="39" height="39" rx="19.5" fill="black"/>
<rect x="0.5" y="0.5" width="39" height="39" rx="19.5" stroke="white"/>
<path d="M26.7809 23.2607C27.0119 23.4917 26.8481 23.8864 26.5218 23.8864H20.44C20.2371 23.8864 20.0733 24.0502 20.0733 24.2531V30.3349C20.0733 30.6612 19.6785 30.825 19.4475 30.594L12.883 24.0294C12.7913 23.9378 12.74 23.8131 12.74 23.6835V16.9198C12.74 16.7169 12.9038 16.5531 13.1067 16.5531H20.0733L26.7809 23.2607Z" fill="white"/>
<path d="M20.0733 16.5531L13.3658 9.8455C13.1348 9.6145 13.2986 9.21973 13.6249 9.21973H27.04C27.2429 9.21973 27.4067 9.3835 27.4067 9.58639V16.1864C27.4067 16.3893 27.2429 16.5531 27.04 16.5531H20.0733Z" fill="white"/>
</svg>
