<svg width="40" height="40" viewBox="0 0 40 40" fill="none" xmlns="http://www.w3.org/2000/svg">
<rect x="0.5" y="0.5" width="39" height="39" rx="19.5" fill="black"/>
<rect x="0.5" y="0.5" width="39" height="39" rx="19.5" stroke="white"/>
<g clip-path="url(#clip0_30_382808)">
<path d="M16.4293 30.7136C18.4008 30.7136 20.0008 29.1136 20.0008 27.1422V23.5708H16.4293C14.4579 23.5708 12.8579 25.1708 12.8579 27.1422C12.8579 29.1136 14.4579 30.7136 16.4293 30.7136Z" fill="#0ACF83"/>
<path d="M12.8579 19.9996C12.8579 18.0282 14.4579 16.4282 16.4293 16.4282H20.0008V23.5711H16.4293C14.4579 23.5711 12.8579 21.9711 12.8579 19.9996Z" fill="#A259FF"/>
<path d="M12.8579 12.8566C12.8579 10.8852 14.4579 9.28516 16.4293 9.28516H20.0008V16.428H16.4293C14.4579 16.428 12.8579 14.828 12.8579 12.8566Z" fill="#F24E1E"/>
<path d="M20.0007 9.28516H23.5722C25.5436 9.28516 27.1436 10.8852 27.1436 12.8566C27.1436 14.828 25.5436 16.428 23.5722 16.428H20.0007V9.28516Z" fill="#FF7262"/>
<path d="M27.1436 19.9996C27.1436 21.9711 25.5436 23.5711 23.5722 23.5711C21.6007 23.5711 20.0007 21.9711 20.0007 19.9996C20.0007 18.0282 21.6007 16.4282 23.5722 16.4282C25.5436 16.4282 27.1436 18.0282 27.1436 19.9996Z" fill="#1ABCFE"/>
</g>
<defs>
<clipPath id="clip0_30_382808">
<rect width="21.4286" height="21.4286" fill="white" transform="translate(9.28577 9.28564)"/>
</clipPath>
</defs>
</svg>
