<svg width="40" height="40" viewBox="0 0 40 40" fill="none" xmlns="http://www.w3.org/2000/svg">
<rect x="0.5" y="0.5" width="39" height="39" rx="19.5" fill="black"/>
<rect x="0.5" y="0.5" width="39" height="39" rx="19.5" stroke="white"/>
<path d="M16.8385 23.9311H11.2767L10.1404 27.4596C10.1105 27.5942 9.99087 27.6839 9.85631 27.6689H7.04547C6.881 27.6689 6.83615 27.5792 6.881 27.3998L11.6953 13.5998C11.7402 13.4503 11.785 13.3157 11.8448 13.1363C11.9046 12.8223 11.9345 12.4934 11.9345 12.1645C11.9196 12.0897 11.9794 12.015 12.0541 12H12.099H15.9265C16.0312 12 16.1059 12.0449 16.1209 12.1196L21.5781 27.3699C21.6229 27.5344 21.5781 27.6091 21.4286 27.6091H18.3038C18.1991 27.6241 18.0944 27.5493 18.0645 27.4447L16.8385 23.8564V23.9311ZM12.1438 20.9558H15.9415C15.8518 20.6418 15.7322 20.268 15.5976 19.8793C15.463 19.4756 15.3285 19.042 15.1939 18.5935C15.0444 18.13 14.9098 17.6815 14.7603 17.218C14.6108 16.7545 14.4762 16.3209 14.3566 15.8873C14.237 15.4687 14.1324 15.08 14.0277 14.7211H13.9978C13.8632 15.364 13.6988 16.0069 13.4895 16.6498C13.2652 17.3675 13.0409 18.1151 12.8017 18.8626C12.6073 19.6251 12.3681 20.3279 12.1438 20.9558Z" fill="#9999FF"/>
<path d="M30.3843 22.5858H25.6447C25.7045 23.0493 25.854 23.5128 26.1082 23.9165C26.3773 24.3201 26.7511 24.6341 27.1997 24.8135C27.7977 25.0677 28.4556 25.2023 29.1134 25.1873C29.6367 25.1724 30.16 25.1275 30.6684 25.0229C31.1318 24.963 31.5804 24.8434 31.999 24.679C32.0738 24.6192 32.1186 24.6491 32.1186 24.7986V27.0861C32.1186 27.1459 32.1037 27.2057 32.0887 27.2655C32.0588 27.3104 32.0289 27.3403 31.9841 27.3702C31.5056 27.5795 31.0122 27.729 30.4889 27.8187C29.7862 27.9533 29.0835 28.0131 28.3659 27.9982C27.2296 27.9982 26.2727 27.8187 25.4952 27.4749C24.7626 27.1609 24.1197 26.6675 23.6114 26.0545C23.1329 25.4714 22.789 24.8135 22.5797 24.0959C22.3704 23.3932 22.2657 22.6606 22.2657 21.913C22.2657 21.1056 22.3854 20.3132 22.6395 19.5357C22.8787 18.7882 23.2525 18.1004 23.7609 17.4874C24.2543 16.8894 24.8673 16.4109 25.57 16.067C26.2727 15.7232 27.11 15.6036 28.0668 15.6036C28.8593 15.5886 29.6517 15.7381 30.3843 16.067C30.9973 16.3362 31.5355 16.7399 31.9542 17.2631C32.3429 17.7715 32.6569 18.3396 32.8512 18.9676C33.0456 19.5656 33.1353 20.1786 33.1353 20.7916C33.1353 21.1505 33.1204 21.4645 33.1054 21.7485C33.0755 22.0326 33.0606 22.2419 33.0456 22.3765C33.0307 22.4811 32.9409 22.5708 32.8363 22.5708C32.7466 22.5708 32.5821 22.5858 32.3429 22.6007C32.1037 22.6307 31.8196 22.6456 31.4757 22.6456C31.1318 22.6456 30.773 22.5858 30.3843 22.5858ZM25.6447 20.4029H28.7994C29.1882 20.4029 29.4723 20.4029 29.6517 20.388C29.7713 20.373 29.8909 20.3431 29.9955 20.2684V20.1188C29.9955 19.9245 29.9656 19.7451 29.9058 19.5656C29.6367 18.7284 28.8443 18.1602 27.9622 18.1901C27.1399 18.1453 26.3624 18.5789 25.9737 19.3264C25.7942 19.6703 25.6896 20.0291 25.6447 20.4029Z" fill="#9999FF"/>
</svg>
