<svg width="40" height="40" viewBox="0 0 40 40" fill="none" xmlns="http://www.w3.org/2000/svg">
<rect x="0.5" y="0.5" width="39" height="39" rx="19.5" fill="#330000"/>
<rect x="0.5" y="0.5" width="39" height="39" rx="19.5" stroke="white"/>
<path d="M20.0425 24.4755H14.7985L13.7271 27.7882C13.6989 27.9151 13.5862 27.9997 13.4593 27.9856H10.8091C10.654 27.9856 10.6117 27.901 10.654 27.7318L15.1932 14.664C15.2355 14.523 15.2778 14.368 15.3342 14.1988C15.3906 13.9028 15.4188 13.5926 15.4188 13.2825C15.4047 13.212 15.461 13.1415 15.5315 13.1274C15.5456 13.1274 15.5597 13.1274 15.5738 13.1274H19.1826C19.2954 13.1274 19.3518 13.1697 19.3659 13.2402L24.5113 27.76C24.5536 27.9151 24.5113 27.9856 24.3703 27.9856H21.424C21.3254 27.9997 21.2267 27.9292 21.1985 27.8305L20.0425 24.4755ZM15.6161 21.6138H19.1967C19.1121 21.3177 18.9994 20.9653 18.8725 20.5988C18.7456 20.2182 18.6188 19.8094 18.4919 19.3865C18.3509 18.9495 18.224 18.5266 18.0831 18.0896C17.9421 17.6526 17.8152 17.2437 17.7025 16.8349C17.5897 16.4402 17.491 16.0737 17.3923 15.7354H17.3641C17.2373 16.3415 17.0822 16.9477 16.8848 17.5539C16.6734 18.2305 16.4619 18.9354 16.2364 19.6402C16.039 20.3592 15.8276 21.0217 15.6161 21.6138Z" fill="#FF9A00"/>
<path d="M27.5843 15.5383C27.1191 15.5524 26.668 15.3692 26.3297 15.0449C26.0055 14.6925 25.8363 14.2273 25.8504 13.748C25.8363 13.2687 26.0196 12.8176 26.3579 12.4934C26.6962 12.1692 27.1473 12 27.6125 12C28.1623 12 28.5852 12.1692 28.8954 12.4934C29.2055 12.8317 29.3747 13.2828 29.3606 13.748C29.3747 14.2273 29.2055 14.6925 28.8672 15.0449C28.5429 15.3833 28.0636 15.5665 27.5843 15.5383ZM26.0055 27.7745V16.9198C26.0055 16.7789 26.0619 16.7225 26.1887 16.7225H28.9799C29.1068 16.7225 29.1632 16.793 29.1632 16.9198V27.7745C29.1632 27.9295 29.1068 28 28.9799 28H26.2169C26.076 28 26.0055 27.9154 26.0055 27.7745Z" fill="#FF9A00"/>
</svg>
