<svg width="40" height="40" viewBox="0 0 40 40" fill="none" xmlns="http://www.w3.org/2000/svg">
<rect x="0.5" y="0.5" width="39" height="39" rx="19.5" fill="black"/>
<rect x="0.5" y="0.5" width="39" height="39" rx="19.5" stroke="white"/>
<path d="M20.0001 21.8515C21.0226 21.8515 21.8515 21.0226 21.8515 20.0001C21.8515 18.9776 21.0226 18.1487 20.0001 18.1487C18.9776 18.1487 18.1487 18.9776 18.1487 20.0001C18.1487 21.0226 18.9776 21.8515 20.0001 21.8515Z" fill="#61DAFB"/>
<path d="M20.0001 23.793C25.4867 23.793 29.9345 22.0948 29.9345 19.9999C29.9345 17.905 25.4867 16.2068 20.0001 16.2068C14.5135 16.2068 10.0657 17.905 10.0657 19.9999C10.0657 22.0948 14.5135 23.793 20.0001 23.793Z" stroke="#61DAFB" stroke-width="1.05"/>
<path d="M16.7149 21.8966C19.4582 26.6481 23.1528 29.6509 24.9671 28.6034C26.7813 27.556 26.0281 22.855 23.2848 18.1034C20.5415 13.3519 16.8469 10.3491 15.0327 11.3966C13.2185 12.444 13.9716 17.145 16.7149 21.8966Z" stroke="#61DAFB" stroke-width="1.05"/>
<path d="M16.7151 18.1035C13.9718 22.8551 13.2186 27.5561 15.0329 28.6035C16.8471 29.651 20.5417 26.6482 23.285 21.8966C26.0283 17.1451 26.7815 12.4441 24.9673 11.3966C23.153 10.3492 19.4584 13.352 16.7151 18.1035Z" stroke="#61DAFB" stroke-width="1.05"/>
</svg>
