<svg width="40" height="40" viewBox="0 0 40 40" fill="none" xmlns="http://www.w3.org/2000/svg">
<rect x="0.5" y="0.5" width="39" height="39" rx="19.5" fill="black"/>
<rect x="0.5" y="0.5" width="39" height="39" rx="19.5" stroke="white"/>
<path d="M28.8349 10L27.2283 27.9979L20.0066 30L12.8048 28.0007L11.2 10H28.8349Z" fill="#264DE4"/>
<path d="M25.8528 26.852L27.2258 11.4719H20.0173V28.4698L25.8528 26.852Z" fill="#2965F1"/>
<path d="M14.8792 18.1482L15.077 20.3559H20.0175V18.1482H14.8792Z" fill="#EBEBEB"/>
<path d="M20.0173 13.6792H20.0097H14.4814L14.6821 15.8869H20.0173V13.6792Z" fill="#EBEBEB"/>
<path d="M20.0176 26.1788V23.8818L20.0079 23.8844L17.5492 23.2205L17.392 21.4597H16.1972H15.1758L15.4851 24.9261L20.0074 26.1816L20.0176 26.1788Z" fill="#EBEBEB"/>
<path d="M22.7283 20.3554L22.4721 23.2186L20.0098 23.8832V26.18L24.5357 24.9257L24.5689 24.5527L25.0877 18.7405L25.1416 18.1477L25.5401 13.6792H20.0098V15.8869H23.1207L22.9198 18.1477H20.0098V20.3554H22.7283Z" fill="white"/>
</svg>
