<svg width="40" height="40" viewBox="0 0 40 40" fill="none" xmlns="http://www.w3.org/2000/svg">
<rect x="0.5" y="0.5" width="39" height="39" rx="19.5" fill="#2A0634"/>
<rect x="0.5" y="0.5" width="39" height="39" rx="19.5" stroke="white"/>
<path d="M21.0734 16.3739C21.0444 13.647 18.8106 11.4713 16.0837 11.5003H10.7169V28.471H13.5019V22.2919H15.9097C18.7526 22.2629 21.0734 19.9131 21.0734 17.0411V16.3739ZM18.2885 17.2442C18.2885 18.6947 17.0991 19.8841 15.6486 19.8841H13.5019V13.8791H15.6486C17.0991 13.8791 18.2885 15.0685 18.2885 16.519V17.2442ZM23.4232 28.471V16.8961C23.4232 16.8961 26.3822 15.4166 29.2832 15.7937V18.2015C29.2832 18.2015 27.2525 18.2015 26.3532 18.5787V28.5H23.4232V28.471Z" fill="#E976B9"/>
</svg>
