<svg width="144" height="60" viewBox="0 0 144 60" fill="none" xmlns="http://www.w3.org/2000/svg">
<g clip-path="url(#clip0_504_1035)">
<g opacity="0.22">
<path opacity="0.02" d="M0.0250854 67.9266C0.0250854 108.322 32.7758 141.068 73.1759 141.068C113.576 141.068 146.327 108.322 146.327 67.9266C146.327 27.5316 113.576 -5.21509 73.1759 -5.21509C32.7758 -5.21509 0.0250854 27.5316 0.0250854 67.9266Z" stroke="white"/>
<path opacity="0.04" d="M2.83508 66.4657C2.83508 106.086 34.9576 138.204 74.5828 138.204C114.208 138.204 146.331 106.086 146.331 66.4657C146.331 26.8456 114.208 -5.27295 74.5828 -5.27295C34.9576 -5.27295 2.83508 26.8456 2.83508 66.4657Z" stroke="white"/>
<path opacity="0.06" d="M5.91634 64.8933C5.91634 103.651 37.3393 135.071 76.1015 135.071C114.864 135.071 146.287 103.651 146.287 64.8933C146.287 26.1354 114.864 -5.28418 76.1015 -5.28418C37.3393 -5.28418 5.91634 26.1354 5.91634 64.8933Z" stroke="white"/>
<path opacity="0.08" d="M8.73376 63.4352C8.73376 101.417 39.5272 132.207 77.5129 132.207C115.499 132.207 146.292 101.417 146.292 63.4352C146.292 25.4538 115.499 -5.33618 77.5129 -5.33618C39.5272 -5.33618 8.73376 25.4538 8.73376 63.4352Z" stroke="white"/>
<path opacity="0.1" d="M11.5456 61.9747C11.5456 99.1809 41.7107 129.343 78.9213 129.343C116.132 129.343 146.297 99.1809 146.297 61.9747C146.297 24.7685 116.132 -5.39307 78.9213 -5.39307C41.7107 -5.39307 11.5456 24.7685 11.5456 61.9747Z" stroke="white"/>
<path opacity="0.12" d="M14.6264 60.4014C14.6264 96.7451 44.0924 126.208 80.4404 126.208C116.788 126.208 146.254 96.7451 146.254 60.4014C146.254 24.0576 116.788 -5.40479 80.4404 -5.40479C44.0924 -5.40479 14.6264 24.0576 14.6264 60.4014Z" stroke="white"/>
<path opacity="0.14" d="M17.4448 58.9418C17.4448 94.5091 46.2807 123.342 81.8516 123.342C117.422 123.342 146.258 94.5091 146.258 58.9418C146.258 23.3745 117.422 -5.4585 81.8516 -5.4585C46.2807 -5.4585 17.4448 23.3745 17.4448 58.9418Z" stroke="white"/>
<path opacity="0.16" d="M20.2555 57.4828C20.2555 92.275 48.4631 120.48 83.2589 120.48C118.055 120.48 146.262 92.275 146.262 57.4828C146.262 22.6905 118.055 -5.51416 83.2589 -5.51416C48.4631 -5.51416 20.2555 22.6905 20.2555 57.4828Z" stroke="white"/>
<path opacity="0.18" d="M23.0739 56.0227C23.0739 90.0382 50.6518 117.613 84.671 117.613C118.69 117.613 146.268 90.0382 146.268 56.0227C146.268 22.0072 118.69 -5.56787 84.671 -5.56787C50.6518 -5.56787 23.0739 22.0072 23.0739 56.0227Z" stroke="white"/>
<path opacity="0.2" d="M25.8856 54.5623C25.8856 87.8027 52.8353 114.749 86.0793 114.749C119.323 114.749 146.273 87.8027 146.273 54.5623C146.273 21.3219 119.323 -5.62476 86.0793 -5.62476C52.8353 -5.62476 25.8856 21.3219 25.8856 54.5623Z" stroke="white"/>
<path opacity="0.22" d="M28.9643 52.9909C28.9643 85.3691 55.215 111.617 87.5969 111.617C119.979 111.617 146.229 85.3691 146.229 52.9909C146.229 20.6127 119.979 -5.63501 87.5969 -5.63501C55.215 -5.63501 28.9643 20.6127 28.9643 52.9909Z" stroke="white"/>
<path opacity="0.24" d="M31.7838 51.5306C31.7838 83.1312 57.4042 108.749 89.0086 108.749C120.613 108.749 146.233 83.1312 146.233 51.5306C146.233 19.9299 120.613 -5.6875 89.0086 -5.6875C57.4042 -5.6875 31.7838 19.9299 31.7838 51.5306Z" stroke="white"/>
<path opacity="0.26" d="M34.595 50.0705C34.595 80.897 59.5871 105.887 90.4164 105.887C121.246 105.887 146.238 80.897 146.238 50.0705C146.238 19.2441 121.246 -5.74561 90.4164 -5.74561C59.5871 -5.74561 34.595 19.2441 34.595 50.0705Z" stroke="white"/>
<path opacity="0.28" d="M37.674 48.499C37.674 78.4632 61.9672 102.754 91.9344 102.754C121.902 102.754 146.195 78.4632 146.195 48.499C146.195 18.5347 121.902 -5.7561 91.9344 -5.7561C61.9672 -5.7561 37.674 18.5347 37.674 48.499Z" stroke="white"/>
<path opacity="0.3" d="M40.4942 47.0386C40.4942 76.2252 64.1571 99.8857 93.3467 99.8857C122.536 99.8857 146.199 76.2252 146.199 47.0386C146.199 17.8519 122.536 -5.80859 93.3467 -5.80859C64.1571 -5.80859 40.4942 17.8519 40.4942 47.0386Z" stroke="white"/>
<path opacity="0.32" d="M43.3057 45.5783C43.3057 73.99 66.3403 97.0221 94.7549 97.0221C123.17 97.0221 146.204 73.99 146.204 45.5783C146.204 17.1667 123.17 -5.86548 94.7549 -5.86548C66.3403 -5.86548 43.3057 17.1667 43.3057 45.5783Z" stroke="white"/>
<path opacity="0.34" d="M46.3838 44.0062C46.3838 71.5553 68.7193 93.8883 96.2715 93.8883C123.824 93.8883 146.159 71.5553 146.159 44.0062C146.159 16.457 123.824 -5.87598 96.2715 -5.87598C68.7193 -5.87598 46.3838 16.457 46.3838 44.0062Z" stroke="white"/>
<path opacity="0.36" d="M49.2051 42.5455C49.2051 69.3182 70.9104 91.0218 97.6853 91.0218C124.46 91.0218 146.166 69.3182 146.166 42.5455C146.166 15.7729 124.46 -5.93066 97.6853 -5.93066C70.9104 -5.93066 49.2051 15.7729 49.2051 42.5455Z" stroke="white"/>
<path opacity="0.38" d="M52.0139 41.0868C52.0139 67.0845 73.0917 88.1598 99.0924 88.1598C125.093 88.1598 146.171 67.0845 146.171 41.0868C146.171 15.0892 125.093 -5.98608 99.0924 -5.98608C73.0917 -5.98608 52.0139 15.0892 52.0139 41.0868Z" stroke="white"/>
<path opacity="0.4" d="M55.093 39.5142C55.093 64.6496 75.4718 85.0258 100.61 85.0258C125.749 85.0258 146.127 64.6496 146.127 39.5142C146.127 14.3789 125.749 -5.99731 100.61 -5.99731C75.4718 -5.99731 55.093 14.3789 55.093 39.5142Z" stroke="white"/>
<path opacity="0.42" d="M57.915 38.0537C57.915 62.4115 77.6634 82.1574 102.024 82.1574C126.385 82.1574 146.134 62.4115 146.134 38.0537C146.134 13.6959 126.385 -6.05005 102.024 -6.05005C77.6634 -6.05005 57.915 13.6959 57.915 38.0537Z" stroke="white"/>
<path opacity="0.44" d="M60.7234 36.5942C60.7234 60.1776 79.8435 79.2958 103.429 79.2958C127.015 79.2958 146.135 60.1776 146.135 36.5942C146.135 13.0107 127.015 -6.10742 103.429 -6.10742C79.8435 -6.10742 60.7234 13.0107 60.7234 36.5942Z" stroke="white"/>
<path opacity="0.46" d="M63.8024 35.0222C63.8024 57.7434 82.2235 76.1625 104.947 76.1625C127.671 76.1625 146.092 57.7434 146.092 35.0222C146.092 12.301 127.671 -6.11816 104.947 -6.11816C82.2235 -6.11816 63.8024 12.301 63.8024 35.0222Z" stroke="white"/>
<path opacity="0.48" d="M66.6244 33.5623C66.6244 55.5061 84.4153 73.2951 106.362 73.2951C128.308 73.2951 146.099 55.5061 146.099 33.5623C146.099 11.6185 128.308 -6.17041 106.362 -6.17041C84.4153 -6.17041 66.6244 11.6185 66.6244 33.5623Z" stroke="white"/>
<path opacity="0.5" d="M69.4334 32.1021C69.4334 53.2715 86.5959 70.4327 107.767 70.4327C128.938 70.4327 146.101 53.2715 146.101 32.1021C146.101 10.9327 128.938 -6.22852 107.767 -6.22852C86.5959 -6.22852 69.4334 10.9327 69.4334 32.1021Z" stroke="white"/>
<path opacity="0.52" d="M72.5119 30.5305C72.5119 50.8378 88.9756 67.3 109.285 67.3C129.593 67.3 146.057 50.8378 146.057 30.5305C146.057 10.2233 129.593 -6.23901 109.285 -6.23901C88.9756 -6.23901 72.5119 10.2233 72.5119 30.5305Z" stroke="white"/>
<path opacity="0.54" d="M75.3347 29.0708C75.3347 48.5998 91.1681 64.4312 110.7 64.4312C130.231 64.4312 146.064 48.5998 146.064 29.0708C146.064 9.54183 130.231 -6.28955 110.7 -6.28955C91.1681 -6.28955 75.3347 9.54183 75.3347 29.0708Z" stroke="white"/>
<path opacity="0.56" d="M78.1423 27.6105C78.1423 46.3652 93.3481 61.5689 112.105 61.5689C130.863 61.5689 146.068 46.3652 146.068 27.6105C146.068 8.8558 130.863 -6.3479 112.105 -6.3479C93.3481 -6.3479 78.1423 8.8558 78.1423 27.6105Z" stroke="white"/>
<path opacity="0.58" d="M81.2212 26.0381C81.2212 43.9315 95.7281 58.437 113.623 58.437C131.518 58.437 146.025 43.9315 146.025 26.0381C146.025 8.14464 131.518 -6.36084 113.623 -6.36084C95.7281 -6.36084 81.2212 8.14464 81.2212 26.0381Z" stroke="white"/>
<path opacity="0.6" d="M84.0458 24.5769C84.0458 41.6919 97.9217 55.5663 115.039 55.5663C132.155 55.5663 146.031 41.6919 146.031 24.5769C146.031 7.46186 132.155 -6.4126 115.039 -6.4126C97.9217 -6.4126 84.0458 7.46186 84.0458 24.5769Z" stroke="white"/>
<path opacity="0.62" d="M86.8519 23.1181C86.8519 39.4587 100.1 52.7054 116.443 52.7054C132.785 52.7054 146.033 39.4587 146.033 23.1181C146.033 6.77746 132.785 -6.46924 116.443 -6.46924C100.1 -6.46924 86.8519 6.77746 86.8519 23.1181Z" stroke="white"/>
<path opacity="0.64" d="M89.9312 21.5464C89.9312 37.025 102.481 49.5728 117.961 49.5728C133.441 49.5728 145.991 37.025 145.991 21.5464C145.991 6.06787 133.441 -6.47998 117.961 -6.47998C102.481 -6.47998 89.9312 6.06787 89.9312 21.5464Z" stroke="white"/>
<path opacity="0.66" d="M92.7567 20.086C92.7567 34.7862 104.675 46.7031 119.377 46.7031C134.079 46.7031 145.998 34.7862 145.998 20.086C145.998 5.38585 134.079 -6.53101 119.377 -6.53101C104.675 -6.53101 92.7567 5.38585 92.7567 20.086Z" stroke="white"/>
<path opacity="0.68" d="M95.5623 18.6258C95.5623 32.5526 106.853 43.8425 120.781 43.8425C134.709 43.8425 146 32.5526 146 18.6258C146 4.69906 134.709 -6.59082 120.781 -6.59082C106.853 -6.59082 95.5623 4.69906 95.5623 18.6258Z" stroke="white"/>
<path opacity="0.7" d="M98.3868 17.1666C98.3868 30.315 109.047 40.9739 122.196 40.9739C135.346 40.9739 146.005 30.315 146.005 17.1666C146.005 4.01825 135.346 -6.64062 122.196 -6.64062C109.047 -6.64062 98.3868 4.01825 98.3868 17.1666Z" stroke="white"/>
<path opacity="0.72" d="M101.193 15.7054C101.193 28.0795 111.226 38.1107 123.601 38.1107C135.976 38.1107 146.008 28.0795 146.008 15.7054C146.008 3.33126 135.976 -6.69995 123.601 -6.69995C111.226 -6.69995 101.193 3.33126 101.193 15.7054Z" stroke="white"/>
<path opacity="0.74" d="M104.016 14.246C104.016 25.8426 113.418 35.2435 125.016 35.2435C136.614 35.2435 146.016 25.8426 146.016 14.246C146.016 2.64943 136.614 -6.75146 125.016 -6.75146C113.418 -6.75146 104.016 2.64943 104.016 14.246Z" stroke="white"/>
<path opacity="0.76" d="M106.825 12.786C106.825 23.6083 115.599 32.3816 126.422 32.3816C137.246 32.3816 146.02 23.6083 146.02 12.786C146.02 1.96366 137.246 -6.80957 126.422 -6.80957C115.599 -6.80957 106.825 1.96366 106.825 12.786Z" stroke="white"/>
<path opacity="0.78" d="M109.897 11.2144C109.897 21.1753 117.973 29.2503 127.935 29.2503C137.898 29.2503 145.974 21.1753 145.974 11.2144C145.974 1.25341 137.898 -6.82153 127.935 -6.82153C117.973 -6.82153 109.897 1.25341 109.897 11.2144Z" stroke="white"/>
<path opacity="0.8" d="M112.734 9.75416C112.734 18.9343 120.177 26.3762 129.358 26.3762C138.539 26.3762 145.982 18.9343 145.982 9.75416C145.982 0.574039 138.539 -6.86792 129.358 -6.86792C120.177 -6.86792 112.734 0.574039 112.734 9.75416Z" stroke="white"/>
<path opacity="0.82" d="M115.53 8.29397C115.53 16.7023 122.348 23.5186 130.757 23.5186C139.167 23.5186 145.984 16.7023 145.984 8.29397C145.984 -0.114364 139.167 -6.93066 130.757 -6.93066C122.348 -6.93066 115.53 -0.114364 115.53 8.29397Z" stroke="white"/>
<path opacity="0.84" d="M118.61 6.72312C118.61 14.2694 124.728 20.3869 132.275 20.3869C139.822 20.3869 145.94 14.2694 145.94 6.72312C145.94 -0.823184 139.822 -6.94067 132.275 -6.94067C124.728 -6.94067 118.61 -0.823184 118.61 6.72312Z" stroke="white"/>
<path opacity="0.86" d="M121.69 5.14963C121.69 11.8338 127.109 17.2524 133.794 17.2524C140.479 17.2524 145.898 11.8338 145.898 5.14963C145.898 -1.53453 140.479 -6.95312 133.794 -6.95312C127.109 -6.95312 121.69 -1.53453 121.69 5.14963Z" stroke="white"/>
<path opacity="0.88" d="M124.77 3.57702C124.77 9.399 129.49 14.1186 135.312 14.1186C141.135 14.1186 145.855 9.399 145.855 3.57702C145.855 -2.24496 141.135 -6.9646 135.312 -6.9646C129.49 -6.9646 124.77 -2.24496 124.77 3.57702Z" stroke="white"/>
<path opacity="0.9" d="M127.848 2.00582C127.848 6.96557 131.869 10.9862 136.829 10.9862C141.79 10.9862 145.811 6.96557 145.811 2.00582C145.811 -2.95393 141.79 -6.97461 136.829 -6.97461C131.869 -6.97461 127.848 -2.95393 127.848 2.00582Z" stroke="white"/>
</g>
</g>
<defs>
<clipPath id="clip0_504_1035">
<rect width="146.356" height="148.094" fill="white" transform="translate(0 -7)"/>
</clipPath>
</defs>
</svg>
