<svg width="1216" height="339" viewBox="0 0 1216 339" fill="none" xmlns="http://www.w3.org/2000/svg">
<path d="M132.624 215.324H52.2735C41.2308 215.324 24.3184 205.217 24.3184 194.101C24.3184 182.99 31.8398 174.208 42.886 174.208H158.288C158.288 174.128 158.295 174.059 158.295 173.983C158.295 151.657 140.617 130.906 121.149 130.034L67.7131 129.555C56.4488 129.555 42.0034 119.56 42.0034 108.331C42.0034 97.0934 48.4916 88.8757 59.7523 88.8757H140.943C141.012 87.9187 141.049 86.9616 141.049 85.994C141.049 63.4053 122.225 45.1035 99.5404 45.1035H73.3452C50.6643 45.1035 30.9466 63.4053 30.9466 85.994C30.9466 99.2095 34.9465 109.744 41.5125 117.244C43.8661 119.939 44.8319 126.41 40.2383 130.872C37.6349 133.399 37.1086 134.014 31.3949 138.17C20.9069 145.815 13.2615 158.68 13.2615 173.98C13.2615 182.536 15.5371 190.477 19.4395 197.07C22.4133 202.082 26.0871 204.045 26.0871 210.902C26.0871 214.882 24.5063 218.641 15.9394 224.75C5.79693 231.97 0 244.248 0 257.99C0 258.215 0.0159548 258.43 0.0159548 258.655H172.43C172.43 258.43 172.443 258.215 172.443 257.99C172.439 235.401 154.596 218.184 132.624 215.324Z" fill="white"/>
<path d="M86.2265 0C79.6285 0 74.2852 5.34325 74.2852 11.9395C74.2852 18.5268 79.6302 23.8789 86.2265 23.8789C92.8138 23.8789 98.1624 18.525 98.1624 11.9395C98.1624 5.34325 92.8138 0 86.2265 0Z" fill="white"/>
<path fill-rule="evenodd" clip-rule="evenodd" d="M283.3 104.226C263.937 104.226 244.397 114.617 233.427 130.108V104.226H191.742V260.143H236.404V169.563C236.404 153.982 249.068 141.349 264.69 141.349C280.312 141.349 292.977 150.517 292.977 169.563V260.143H337.639V156.941C337.639 122.875 312.489 104.226 283.3 104.226ZM467.16 125.557C455.47 111.452 439.444 102.741 421.754 102.741C382.017 102.741 355.504 138.308 355.504 182.181C355.504 232.493 385.987 261.626 421.754 261.626C439.444 261.626 455.47 252.914 467.16 238.809V255.686H511.821V47.7988H467.16V125.557ZM434.409 225.989C415.498 225.989 400.168 205.557 400.168 182.181C400.168 158.809 415.498 138.377 434.409 138.377C453.319 138.377 467.16 158.809 467.16 182.181C467.16 205.557 453.319 225.989 434.409 225.989ZM1047.03 104.226C1027.66 104.226 1008.12 114.617 997.154 130.108V116.106L955.469 102.741V260.141H988.222H1000.13V169.561C1000.13 153.98 1012.8 141.347 1028.42 141.347C1044.04 141.347 1056.7 150.515 1056.7 169.561V260.141H1101.37V156.939C1101.37 122.875 1076.21 104.226 1047.03 104.226ZM885.498 258.658H930.16V101.258L885.498 113.135V258.658ZM625.712 102.741C608.021 102.741 591.993 111.452 580.306 125.557V108.68H535.642V313.599H580.306V238.809C591.993 252.914 608.021 261.626 625.712 261.626C665.448 261.626 691.961 226.058 691.961 182.181C691.961 131.873 661.479 102.741 625.712 102.741ZM613.056 225.989C594.147 225.989 580.306 205.557 580.306 182.181C580.306 158.809 594.148 138.377 613.056 138.377C631.968 138.377 647.297 158.809 647.297 182.181C647.299 205.557 631.968 225.989 613.056 225.989ZM1202.6 223.018C1185.96 223.018 1183.25 214.375 1183.25 203.714V139.862H1214.51V107.193H1183.25V56.566L1138.59 68.509V107.193H1113.28V139.862H1138.59V215.524C1138.59 247.746 1159.91 257.171 1186.22 257.171C1197.89 257.171 1207.72 257.026 1216 256.742V222.877C1212.13 222.971 1207.7 223.018 1202.6 223.018ZM787.241 101.256C742.841 101.256 706.849 137.156 706.849 181.44C706.849 225.725 742.843 261.626 787.241 261.626C831.639 261.626 867.632 225.725 867.632 181.44C867.632 137.156 831.639 101.256 787.241 101.256ZM785.752 224.504C763.197 224.504 753.002 205.224 753.002 181.44C753.002 157.657 765.432 138.377 785.752 138.377C808.307 138.377 819.993 157.657 819.993 181.44C819.993 205.224 809.794 224.504 785.752 224.504Z" fill="white"/>
<path fill-rule="evenodd" clip-rule="evenodd" d="M817.983 297.042C822.93 297.042 827.406 299.199 830.393 303.978L839.351 298.727C835.527 291.133 827.782 287.1 818.077 287.1C802.308 287.1 791.109 297.696 791.109 312.7C791.109 327.701 802.306 338.39 818.077 338.39C827.782 338.39 835.527 334.17 839.351 326.67L830.393 321.419C827.406 326.202 822.93 328.359 817.983 328.359C809.399 328.359 802.866 322.45 802.866 312.7C802.866 303.043 809.401 297.042 817.983 297.042ZM867.606 337.734H879.27V268.16H867.606V337.734ZM913.225 337.734H924.888V287.665H913.225V337.734ZM919.101 265.346C914.809 265.346 911.637 268.44 911.637 272.38C911.637 276.319 914.809 279.414 919.101 279.414C923.487 279.414 926.568 276.222 926.568 272.1C926.568 268.254 923.394 265.346 919.101 265.346ZM980.487 287.1C965.65 287.1 954.734 297.788 954.734 312.7C954.734 327.607 965.556 338.39 982.261 338.39C990.844 338.39 997.843 335.575 1002.32 330.234L996.069 323.01C992.524 326.668 988.138 328.451 982.54 328.451C973.863 328.451 967.797 323.762 966.398 316.448H1005.5C1005.59 315.322 1005.68 313.917 1005.68 312.979C1005.68 297.322 995.045 287.1 980.487 287.1ZM966.304 308.668C967.424 301.354 972.929 296.477 980.487 296.477C988.138 296.477 993.644 301.448 994.577 308.668H966.304ZM1063.79 287.1C1056.51 287.1 1050.45 289.54 1046.62 294.134V287.665H1035.52V337.734H1047.18V312.418C1047.18 302.387 1052.78 297.322 1061.09 297.322C1068.55 297.322 1072.94 301.636 1072.94 310.541V337.734H1084.6V309.042C1084.6 293.948 1075.74 287.1 1063.79 287.1ZM1138.23 328.733C1133.75 328.733 1131.33 326.106 1131.33 321.233V297.416H1144.67V288.039H1131.33V276.599H1119.67V288.039H1111.45V297.416H1119.67V321.515C1119.67 332.577 1125.92 338.391 1136.83 338.391C1141.03 338.391 1145.23 337.266 1148.03 335.017L1144.77 326.672C1142.99 328.075 1140.66 328.733 1138.23 328.733ZM1183.47 302.199C1183.47 298.913 1186.83 296.571 1193.93 296.571C1198.68 296.571 1203.44 297.508 1208.2 300.322L1212.68 291.413C1208.2 288.697 1200.64 287.1 1194.02 287.1C1180.58 287.1 1172.09 293.288 1172.09 302.759C1172.09 322.732 1202.88 313.731 1202.88 323.296C1202.88 326.764 1199.8 328.827 1192.43 328.827C1186.18 328.827 1179.46 326.764 1175.08 323.856L1170.6 332.765C1175.08 335.953 1183.38 338.39 1191.69 338.39C1205.68 338.39 1214.27 332.295 1214.27 322.918C1214.27 303.324 1183.47 312.324 1183.47 302.199Z" fill="white"/>
<path d="M902.356 88.5532C914.1 88.5532 923.621 79.0326 923.621 67.2883C923.621 55.5441 914.1 46.0234 902.356 46.0234C890.612 46.0234 881.091 55.5441 881.091 67.2883C881.091 79.0326 890.612 88.5532 902.356 88.5532Z" fill="white"/>
</svg>
